<?xml version="1.0" standalone="no"?>
<!DOCTYPE svg PUBLIC "-//W3C//DTD SVG 20010904//EN"
 "http://www.w3.org/TR/2001/REC-SVG-20010904/DTD/svg10.dtd">
<svg version="1.0" xmlns="http://www.w3.org/2000/svg"
 width="2880.000000pt" height="1564.000000pt" viewBox="0 0 2880.000000 1564.000000"
 preserveAspectRatio="xMidYMid meet">
<metadata>
Created by potrace 1.15, written by Peter Selinger 2001-2017
</metadata>
<g transform="translate(0.000000,1564.000000) scale(0.100000,-0.100000)"
fill="#000000" stroke="none">
<path d="M5957 15634 c-3 -3 -144 -10 -314 -14 -169 -5 -486 -13 -703 -19
-217 -6 -505 -16 -640 -21 -135 -6 -445 -15 -690 -20 -245 -6 -697 -19 -1005
-30 -630 -22 -900 -29 -1385 -35 -184 -3 -373 -9 -420 -14 -47 -6 -246 -13
-442 -17 l-358 -7 0 -150 0 -150 78 6 c42 4 199 9 347 12 392 8 815 24 1150
45 88 5 291 14 450 20 160 6 391 15 515 20 341 15 683 28 1010 40 162 5 403
14 535 20 558 24 743 31 980 40 538 20 1236 48 1489 60 109 6 287 10 395 11
108 0 241 3 296 8 55 4 125 5 155 2 50 -5 55 -8 53 -28 -4 -32 41 -33 467 -15
135 6 355 16 490 21 135 6 322 15 415 21 94 5 339 17 545 25 206 8 422 20 480
25 58 6 124 10 145 10 22 0 50 3 63 6 25 7 24 20 -7 86 -12 25 -15 39 -7 42 6
2 -910 5 -2035 5 -1125 1 -2048 -2 -2052 -5z"/>
<path d="M13585 15629 c-82 -4 -251 -13 -375 -20 -124 -7 -283 -14 -355 -16
-71 -2 -222 -8 -335 -14 -113 -5 -254 -12 -315 -15 -504 -21 -750 -33 -1125
-55 -113 -6 -254 -12 -315 -14 -60 -2 -202 -8 -315 -14 -113 -6 -335 -15 -495
-20 -159 -5 -380 -14 -490 -20 -110 -7 -310 -16 -445 -22 -135 -6 -324 -15
-420 -19 -96 -5 -278 -13 -405 -19 -222 -9 -517 -25 -715 -37 -175 -10 -443
-22 -745 -33 -165 -6 -390 -15 -500 -21 -249 -12 -852 -39 -1355 -59 -146 -5
-301 -13 -345 -16 -44 -4 -172 -10 -285 -15 -113 -5 -320 -13 -460 -19 -140
-5 -343 -15 -450 -20 -297 -16 -676 -31 -1495 -61 -297 -10 -627 -24 -950 -40
-116 -6 -322 -15 -460 -20 -406 -17 -435 -20 -435 -42 0 -18 5 -19 58 -14 31
4 172 11 312 16 411 16 720 29 950 40 346 16 625 29 770 35 74 3 232 10 350
15 118 6 391 17 605 25 215 8 473 19 575 25 408 22 576 30 815 40 138 6 336
15 440 20 105 5 296 14 425 20 129 5 327 14 440 20 113 6 367 17 565 25 542
22 828 36 950 45 114 9 232 3 241 -11 8 -13 178 -11 519 6 544 27 697 35 995
50 162 8 390 19 505 25 385 18 540 32 579 52 17 9 224 20 881 48 132 5 317 14
410 20 94 5 265 14 380 20 116 5 309 15 430 21 360 18 515 24 525 21 6 -2 10
-14 10 -27 0 -23 -3 -24 -82 -28 l-83 -3 83 -2 c53 -1 82 -6 82 -13 0 -8 4 -8
15 1 10 9 12 17 5 30 -18 33 14 44 159 52 561 31 574 32 961 48 146 6 337 12
425 13 88 2 -2 3 -200 3 -198 0 -427 -3 -510 -7z"/>
<path d="M18780 15604 c-14 -20 -27 -41 -30 -45 -8 -11 -205 -49 -258 -49 -24
0 -73 -4 -110 -9 -37 -6 -123 -18 -192 -27 -122 -16 -236 -40 -145 -29 22 2
132 6 245 9 153 5 197 3 175 -5 -16 -6 -51 -19 -76 -30 -56 -23 -232 -43 -734
-84 -104 -9 -224 -20 -265 -25 -41 -5 -113 -12 -160 -15 -47 -4 -143 -13 -215
-21 -157 -17 -262 -18 -267 -3 -5 15 -272 -5 -318 -25 -51 -21 -130 -33 -365
-56 -115 -11 -253 -25 -305 -31 -91 -10 -191 -17 -525 -38 -82 -5 -193 -15
-245 -21 -52 -7 -124 -10 -160 -6 -36 3 -93 8 -128 12 -46 4 -108 -2 -225 -21
-89 -15 -166 -30 -172 -35 -5 -4 -38 -13 -72 -20 -58 -12 -79 -11 -251 6 -31
4 -115 -3 -200 -15 -81 -11 -169 -22 -197 -25 -27 -2 -70 -9 -95 -15 -99 -25
-243 -45 -465 -67 -302 -29 -295 -29 -295 -8 -1 18 -1 18 -16 -1 -18 -24 -126
-37 -774 -92 -102 -8 -219 -18 -260 -22 -41 -4 -80 -6 -87 -3 -19 6 -33 95
-15 105 4 3 66 10 137 16 72 6 207 18 300 26 334 29 664 55 692 55 15 0 64 4
108 10 44 5 163 16 265 25 102 8 266 21 365 30 99 8 234 19 300 25 66 5 221
17 345 25 261 19 385 29 600 49 228 22 374 35 570 51 433 36 552 46 650 55 58
5 148 12 200 15 134 8 386 29 785 65 172 16 655 58 815 71 80 6 165 15 190 19
l45 8 -45 1 c-53 1 -530 -33 -745 -54 -82 -8 -249 -22 -370 -30 -218 -15 -433
-33 -715 -60 -80 -8 -239 -19 -355 -25 -115 -6 -289 -19 -385 -30 -96 -11
-236 -24 -310 -30 -74 -6 -179 -15 -233 -20 -54 -6 -132 -10 -175 -10 -42 0
-194 -11 -337 -25 -377 -37 -715 -64 -915 -75 -96 -5 -227 -14 -290 -19 -63
-6 -169 -11 -235 -12 -66 -1 -127 -5 -136 -10 -9 -4 -88 -13 -175 -19 -87 -6
-217 -18 -289 -26 -205 -22 -597 -64 -630 -67 -25 -2 -32 4 -47 33 l-17 35 -1
-37 0 -36 -72 -6 c-40 -3 -170 -12 -288 -21 -118 -9 -258 -20 -310 -25 -52 -5
-205 -19 -340 -29 -441 -36 -504 -42 -565 -53 -33 -6 -82 -14 -110 -19 -92
-15 256 0 477 21 117 11 299 27 403 35 198 16 283 23 577 50 213 20 230 19
238 -15 8 -30 -7 -80 -23 -80 -42 -1 -364 -32 -467 -44 -136 -17 -259 -29
-535 -51 -191 -16 -280 -24 -520 -50 -352 -38 -653 -61 -663 -51 -3 3 12 6 34
6 21 1 62 7 89 15 50 15 50 15 -60 11 -143 -5 -336 -25 -355 -36 -10 -6 19
-10 80 -11 l95 -2 -75 -7 c-201 -20 -448 -41 -565 -50 -71 -5 -188 -17 -260
-25 -256 -30 -531 -60 -705 -75 -58 -5 -211 -18 -340 -30 -129 -11 -302 -27
-385 -35 -334 -32 -579 -55 -750 -70 -99 -8 -234 -20 -300 -25 -66 -6 -178
-15 -250 -20 -71 -5 -202 -16 -290 -24 -191 -17 -408 -28 -325 -16 140 20 325
39 430 45 160 8 319 24 403 40 l72 14 -110 -4 c-60 -2 -193 -11 -295 -20 -102
-8 -307 -24 -455 -35 -149 -10 -277 -21 -285 -24 -8 -3 -60 -10 -115 -15 -230
-23 -384 -43 -450 -61 -74 -20 -286 -37 -250 -21 26 13 -60 13 -269 1 -87 -4
-165 -6 -172 -3 -26 10 -14 23 20 23 19 0 37 4 40 9 3 4 52 12 108 15 57 4
128 14 158 21 30 8 143 21 250 30 356 28 434 36 440 42 3 3 -29 3 -70 0 -41
-3 -151 -11 -245 -17 -93 -6 -204 -15 -245 -20 -41 -5 -124 -12 -185 -15 -60
-3 -157 -10 -215 -15 -58 -6 -193 -17 -300 -25 -107 -9 -235 -20 -285 -25 -49
-5 -182 -16 -295 -25 -202 -16 -297 -24 -495 -45 -55 -6 -163 -15 -240 -20
-77 -6 -189 -14 -250 -19 -60 -5 -175 -14 -255 -20 -217 -16 -471 -37 -805
-66 -84 -7 -242 -22 -360 -35 -55 -6 -135 -13 -178 -17 l-77 -6 0 -228 0 -229
29 0 c25 0 191 16 731 70 115 11 400 35 550 45 52 4 92 4 89 0 -11 -11 -133
-27 -579 -75 -151 -16 -315 -34 -365 -40 -84 -10 -215 -23 -380 -38 l-70 -7
-3 -798 -2 -799 92 7 c51 4 125 11 163 15 50 5 77 4 95 -6 14 -7 44 -16 65
-20 22 -4 63 -18 90 -31 53 -25 96 -36 237 -58 47 -7 107 -23 133 -34 26 -12
55 -21 63 -21 15 0 142 -39 151 -47 2 -2 2 -5 -1 -8 -9 -9 -254 -62 -463 -100
-256 -46 -298 -54 -365 -65 -30 -5 -97 -19 -149 -30 -52 -11 -98 -20 -103 -20
-4 0 -8 -31 -8 -70 0 -81 -10 -76 122 -55 276 45 361 57 548 80 113 14 318 44
455 65 138 22 268 43 290 46 22 4 128 22 235 41 187 33 276 49 515 93 61 11
128 23 150 26 40 6 185 31 345 60 47 9 173 33 280 55 181 36 843 156 1095 199
111 19 634 112 1735 310 333 59 700 125 815 145 116 20 244 42 285 50 41 8
140 25 220 39 263 47 644 115 718 129 40 8 75 11 77 6 5 -7 -50 -59 -63 -59
-4 0 -68 -12 -142 -26 -74 -13 -151 -27 -170 -30 -19 -2 -57 -9 -85 -15 -27
-6 -72 -14 -100 -19 -27 -5 -86 -16 -130 -24 -44 -8 -168 -31 -275 -51 -107
-19 -229 -42 -270 -50 -213 -42 -451 -87 -585 -110 -82 -14 -222 -39 -310 -56
-205 -37 -175 -32 -495 -90 -151 -27 -313 -56 -360 -65 -76 -13 -733 -133
-1010 -184 -320 -59 -790 -141 -890 -155 -63 -9 -171 -27 -240 -40 -69 -14
-150 -29 -180 -35 -63 -11 -326 -60 -510 -95 -459 -88 -1462 -275 -1640 -306
-63 -11 -122 -22 -130 -24 -8 -3 -69 -14 -135 -25 -66 -11 -130 -22 -142 -25
l-23 -5 0 -816 c0 -772 1 -815 18 -810 9 3 93 23 187 45 94 22 256 61 360 86
105 25 287 68 405 96 118 28 307 73 420 100 113 27 270 65 350 84 347 82 704
169 1315 321 122 29 224 54 228 54 15 0 6 -22 -34 -85 -29 -47 -49 -67 -72
-74 -39 -13 -723 -180 -1002 -246 -110 -26 -213 -51 -230 -56 -16 -5 -106 -28
-200 -50 -93 -22 -307 -74 -475 -115 -320 -79 -674 -165 -1047 -255 l-223 -53
0 -4658 0 -4658 9429 0 9429 0 7 29 c10 47 59 107 107 130 l44 21 2984 0 2984
0 44 -21 c48 -23 97 -83 107 -130 l7 -29 1829 0 1829 0 0 7820 0 7820 -4997 0
-4998 0 -25 -36z m-3220 -589 c-57 -14 -332 -50 -500 -65 -296 -27 -490 -46
-750 -76 -306 -34 -605 -42 -495 -13 17 4 158 19 315 34 157 14 348 32 425 40
77 8 217 21 310 30 94 9 211 20 260 25 50 5 153 14 230 20 77 6 156 12 175 14
74 6 83 4 30 -9z m-1820 -184 l0 -28 218 -7 c255 -8 340 -15 302 -27 -14 -4
-60 -13 -102 -19 -99 -16 -166 -54 -221 -125 -48 -63 -38 -60 -303 -71 -146
-5 -168 -4 -239 16 -87 24 -109 18 -82 -23 27 -41 141 -67 296 -67 71 0 132
-4 135 -9 9 -14 -14 -19 -131 -31 -59 -5 -164 -18 -232 -27 l-124 -17 -18 23
c-24 29 -25 99 -4 241 9 56 14 105 11 107 -5 5 -182 -11 -306 -28 -41 -5 -121
-12 -178 -14 -57 -3 -107 -7 -112 -10 -5 -3 -56 -10 -112 -16 -57 -5 -170 -17
-253 -25 -82 -9 -186 -20 -230 -24 -274 -28 -384 -40 -411 -46 -21 -4 -34 -1
-44 11 -12 14 -12 18 1 26 8 5 23 9 34 9 11 0 83 7 160 15 191 20 837 84 905
89 30 3 100 10 155 15 55 6 168 17 250 26 83 8 191 20 240 26 174 21 320 36
358 38 34 1 37 -1 37 -28z m1135 -71 c467 -21 1085 -47 1345 -56 241 -8 264
-17 110 -44 -94 -16 -140 -39 -210 -104 l-55 -52 -155 12 c-85 7 -240 20 -345
29 -211 19 -636 33 -996 34 -249 1 -362 8 -353 22 3 5 17 9 32 9 15 1 70 11
122 23 l95 23 3 57 3 57 97 0 c53 0 191 -4 307 -10z m2065 -91 c528 -22 655
-22 780 -1 97 17 117 18 126 7 19 -26 -4 -408 -27 -429 -12 -11 -268 -70 -366
-84 -50 -7 -58 19 -43 145 7 57 9 107 6 110 -3 4 -6 -1 -6 -10 0 -17 -38 -31
-115 -42 -22 -4 -119 3 -215 14 -195 23 -683 89 -717 98 -29 7 -30 23 -1 23
37 0 192 51 206 68 6 9 12 37 12 63 0 55 6 59 75 53 28 -3 156 -9 285 -15z
m-5374 -40 c9 -15 -10 -32 -38 -34 -13 -1 -97 -10 -188 -19 -266 -28 -306 -30
-315 -16 -14 23 14 31 171 46 87 8 191 19 229 23 103 12 133 12 141 0z m-572
-57 c15 -25 -18 -35 -155 -48 -79 -7 -189 -18 -244 -24 -126 -13 -382 -39
-500 -50 -49 -4 -144 -13 -210 -19 -172 -16 -309 -31 -390 -41 -38 -5 -106
-12 -150 -15 -44 -3 -109 -10 -145 -15 -94 -13 -269 -31 -390 -41 -58 -4 -148
-12 -200 -18 -52 -6 -174 -17 -270 -26 -96 -9 -218 -20 -270 -25 -52 -4 -151
-13 -220 -19 -69 -6 -161 -16 -205 -21 -44 -5 -152 -17 -240 -25 -88 -9 -203
-20 -255 -25 -52 -5 -131 -12 -175 -15 -44 -3 -116 -10 -160 -15 -108 -13
-265 -28 -410 -41 -66 -6 -156 -14 -200 -19 -44 -5 -154 -16 -245 -25 -91 -9
-201 -20 -245 -25 -44 -5 -150 -16 -235 -24 -85 -9 -198 -20 -250 -25 -227
-24 -422 -43 -520 -51 -58 -5 -170 -16 -250 -24 -219 -22 -545 -54 -835 -81
-143 -14 -300 -29 -350 -35 -49 -5 -117 -11 -150 -14 -33 -3 -107 -10 -165
-16 -58 -5 -289 -28 -515 -50 -225 -22 -431 -42 -457 -45 -56 -7 -347 -29
-638 -50 -113 -8 -252 -19 -310 -24 -58 -6 -133 -13 -168 -16 -35 -4 -62 -2
-62 3 0 5 24 12 53 15 28 3 124 15 212 26 287 39 705 87 1005 115 91 9 208 21
260 26 52 5 167 17 255 25 88 8 322 31 520 50 198 20 430 42 515 50 319 31
359 35 510 50 85 8 254 24 375 35 121 12 263 25 315 30 52 5 262 25 465 44
204 20 413 40 465 46 52 5 212 21 355 35 300 29 1206 116 1500 145 110 11 344
33 520 50 380 36 1167 112 1455 140 355 35 387 38 765 75 204 20 402 40 440
44 95 11 193 13 199 3z m4066 -111 c-8 -5 -76 -16 -150 -25 -74 -9 -157 -21
-185 -26 -48 -9 -192 -29 -355 -51 -41 -5 -123 -16 -181 -24 -140 -20 -179
-19 -179 0 0 20 -1 20 160 39 74 9 164 21 200 26 36 5 124 17 195 26 72 9 168
22 215 29 97 15 303 19 280 6z m-2377 -114 c11 -28 -13 -38 -124 -53 -63 -8
-148 -20 -189 -27 -41 -7 -130 -12 -197 -12 l-122 1 18 -21 c10 -11 27 -38 37
-60 10 -22 24 -43 31 -48 6 -4 10 -14 7 -21 -3 -8 3 -19 15 -25 13 -7 18 -17
14 -27 -6 -17 -5 -22 57 -229 24 -77 46 -144 50 -148 5 -5 22 4 39 19 46 41
114 84 131 84 15 -1 -45 -60 -104 -105 -52 -38 -74 -38 -252 5 -208 50 -344
78 -544 110 -357 57 -584 85 -760 94 l-105 6 60 -15 c33 -7 66 -14 73 -14 23
-2 13 -41 -14 -53 -20 -9 -35 -9 -67 1 -23 8 -61 13 -84 12 -50 -1 -54 10 -16
45 14 13 24 26 21 29 -9 9 -543 35 -718 35 -91 0 -220 -7 -285 -15 -169 -21
-181 -20 -121 11 26 14 107 48 180 76 72 27 145 56 161 63 51 23 213 75 268
86 29 6 86 21 127 34 120 36 368 78 620 105 52 5 103 12 112 14 9 2 27 -3 39
-12 19 -13 23 -13 33 0 17 23 167 33 206 13 22 -11 63 -15 167 -15 76 0 145
-4 153 -10 8 -5 19 -5 25 -1 20 16 149 20 313 9 224 -15 242 -14 368 16 60 14
161 32 224 40 154 18 147 18 153 3z m1117 -51 c-9 -9 -55 -19 -110 -26 -98
-12 -280 -35 -385 -50 -33 -4 -82 -13 -109 -19 -50 -12 -106 -7 -106 9 0 15
62 27 270 56 107 14 249 34 315 43 120 18 153 14 125 -13z m-11160 -249 c0
-17 -237 -59 -415 -72 -106 -8 -359 -37 -364 -41 -2 -2 25 -4 60 -5 85 -1 42
-14 -96 -28 -55 -6 -161 -17 -235 -26 -271 -31 -582 -52 -545 -36 11 4 52 11
90 15 101 10 185 27 185 38 0 6 -10 8 -22 4 -13 -3 -113 -8 -223 -10 -110 -3
-190 -2 -178 0 12 3 27 12 33 20 9 10 35 14 94 14 45 0 105 7 132 15 27 8 74
16 104 19 30 3 73 8 95 11 22 3 67 7 100 10 33 2 116 9 185 15 363 29 638 50
745 56 66 3 122 8 124 10 2 2 33 4 68 4 44 0 63 -4 63 -13z m12630 -148 c-14
-6 -45 -14 -70 -19 -25 -6 -76 -17 -115 -25 -38 -9 -95 -20 -125 -26 -99 -18
-97 -14 -38 -77 50 -52 128 -170 128 -193 0 -15 -17 -11 -71 17 -45 23 -54 32
-80 92 -17 37 -42 89 -56 115 -14 27 -23 50 -21 52 3 4 108 22 358 64 30 5 69
9 85 9 30 1 30 1 5 -9z m-2135 -17 c6 -4 15 -16 21 -27 14 -24 62 -24 158 -1
86 20 169 29 162 17 -4 -5 -32 -13 -64 -16 -78 -10 -197 -39 -257 -63 -27 -11
-71 -28 -97 -37 -63 -22 -183 -101 -245 -161 -58 -57 -122 -141 -152 -201 -28
-57 -15 -54 29 5 42 57 196 212 210 212 6 0 -15 -26 -46 -57 -80 -83 -146
-184 -245 -379 -48 -95 -99 -190 -113 -213 -14 -22 -26 -43 -26 -46 0 -2 -19
-37 -43 -77 -23 -40 -51 -90 -62 -111 -28 -52 -31 -29 -4 33 12 28 19 53 15
57 -3 3 -6 -1 -6 -10 0 -8 -4 -17 -9 -19 -7 -2 -182 -354 -221 -443 -54 -124
-145 -299 -174 -332 -35 -40 -119 -84 -133 -69 -7 6 42 119 150 346 185 390
202 427 303 678 68 170 99 226 229 423 159 241 239 315 442 410 48 22 73 40
73 51 0 25 80 49 105 30z m1510 -46 c61 -65 104 -141 89 -156 -12 -12 -114 21
-132 43 -21 24 -53 127 -47 147 10 33 36 23 90 -34z m-5409 -89 c-10 -8 -57
-19 -105 -25 -47 -7 -169 -23 -271 -37 -244 -33 -383 -53 -450 -64 -30 -6
-118 -17 -195 -26 -77 -9 -159 -20 -183 -25 -23 -6 -55 -10 -70 -10 -26 0
-197 -23 -297 -40 -27 -5 -108 -16 -180 -25 -71 -9 -161 -20 -200 -25 -38 -5
-124 -17 -190 -25 -66 -9 -156 -21 -200 -26 -86 -11 -249 -34 -355 -49 -36 -5
-123 -16 -195 -25 -71 -9 -157 -20 -190 -25 -33 -5 -118 -16 -190 -25 -71 -9
-143 -18 -160 -20 -16 -3 -84 -12 -150 -21 -66 -9 -147 -20 -180 -24 -119 -16
-301 -41 -370 -49 -38 -5 -124 -17 -190 -26 -66 -9 -151 -20 -190 -25 -38 -5
-124 -17 -190 -25 -66 -9 -154 -20 -195 -25 -41 -5 -106 -13 -145 -19 -38 -5
-113 -15 -165 -21 -52 -6 -149 -17 -215 -26 -146 -18 -389 -28 -360 -15 22 9
256 48 485 81 205 28 275 38 355 50 39 5 108 15 155 20 47 6 137 17 200 26 63
8 149 19 190 24 88 11 272 35 385 50 44 6 112 15 150 20 39 5 124 16 190 25
66 9 170 22 230 30 61 8 198 26 305 40 107 14 229 30 270 35 76 10 249 32 375
50 39 5 158 20 265 34 107 14 247 32 310 41 63 9 151 20 195 25 44 6 130 17
190 25 128 18 310 42 410 54 39 5 143 19 233 30 307 40 487 62 602 77 63 8
153 20 200 27 87 13 118 8 86 -16z m-98 -74 c-4 -22 -58 -36 -228 -58 -69 -9
-156 -21 -195 -26 -38 -5 -122 -16 -185 -24 -63 -8 -144 -19 -180 -24 -36 -6
-117 -17 -180 -26 -63 -8 -131 -17 -150 -20 -19 -3 -87 -12 -150 -20 -63 -9
-144 -20 -180 -25 -135 -20 -222 -32 -297 -41 -43 -5 -107 -14 -143 -19 -36
-6 -117 -17 -180 -26 -133 -18 -192 -26 -350 -49 -63 -9 -164 -22 -225 -30
-60 -8 -227 -30 -370 -50 -143 -20 -312 -42 -375 -50 -63 -8 -144 -19 -180
-24 -97 -14 -522 -70 -622 -81 -47 -6 -92 -12 -100 -15 -7 -2 -35 -6 -63 -9
-27 -3 -84 -10 -125 -16 -224 -31 -416 -58 -545 -75 -359 -46 -507 -66 -565
-75 -36 -5 -99 -14 -140 -20 -149 -20 -667 -91 -775 -105 -60 -8 -139 -19
-175 -25 -104 -15 -228 -31 -320 -40 -47 -5 -157 -18 -245 -29 -88 -11 -225
-27 -305 -35 -149 -16 -298 -33 -360 -41 -32 -4 -33 -4 -10 6 25 10 131 29
380 68 74 12 158 25 185 31 28 5 77 12 110 15 33 4 85 11 115 16 30 6 78 14
105 19 28 5 102 16 165 25 63 8 165 22 225 31 61 9 157 22 215 29 124 17 195
26 390 54 80 11 260 36 400 55 140 20 355 49 477 66 122 17 255 35 295 40 40
5 125 16 188 25 63 9 147 20 185 25 39 5 120 15 180 24 133 19 746 101 900
121 61 8 214 28 340 45 127 17 298 40 380 50 181 24 654 86 1015 135 370 50
401 54 525 70 242 31 510 66 690 91 105 14 228 30 275 35 47 5 90 12 95 14 6
2 27 4 48 4 31 1 38 -2 35 -16z m-143 -290 c-140 -137 -216 -205 -228 -204
-14 2 -17 -2 -13 -17 8 -23 -77 -106 -176 -173 -189 -128 -410 -316 -475 -405
-25 -35 -51 -60 -56 -57 -6 3 -7 1 -3 -5 8 -14 33 -16 38 -3 3 8 83 61 93 61
11 0 4 -20 -7 -21 -7 0 -33 -24 -58 -54 -25 -29 -55 -58 -68 -64 -33 -16 -172
-15 -172 2 0 15 229 250 360 368 139 127 400 354 461 401 18 15 92 73 162 130
148 119 326 248 341 248 6 0 -84 -93 -199 -207z m-1030 7 c8 -13 58 -13 72 1
15 15 33 3 33 -22 0 -17 -7 -19 -64 -19 -36 0 -68 -4 -71 -10 -3 -5 -41 -10
-84 -10 -54 0 -82 -4 -90 -14 -14 -17 24 -26 111 -26 51 0 61 3 65 20 5 18 14
20 99 20 74 0 94 -3 94 -14 0 -8 6 -16 13 -19 6 -3 -7 -2 -30 0 -26 4 -49 1
-57 -6 -11 -9 -15 -9 -19 1 -4 10 -7 11 -18 1 -9 -9 -47 -13 -116 -13 -85 0
-103 -3 -103 -15 0 -12 -14 -15 -64 -15 -35 0 -66 -4 -68 -9 -1 -4 -31 -11
-65 -15 -53 -6 -63 -5 -63 9 0 12 13 15 65 15 37 0 65 4 65 10 0 6 -30 10 -69
10 -39 0 -73 -4 -76 -10 -8 -13 -88 -13 -101 -1 -12 12 -104 26 -104 16 0 -14
34 -34 58 -35 12 0 22 -5 22 -11 0 -8 -39 -10 -132 -6 -73 3 -125 4 -115 1 9
-3 17 -9 17 -14 0 -12 -40 -20 -100 -18 -40 1 -45 2 -19 5 31 3 37 8 37 29 0
21 -5 24 -40 24 -21 0 -37 4 -34 9 8 13 118 25 125 13 3 -5 35 -7 69 -4 56 4
63 7 59 23 -3 10 1 23 9 30 11 9 14 8 14 -5 0 -19 7 -20 48 -5 18 6 29 16 25
22 -4 7 13 8 56 4 54 -6 62 -5 57 8 -4 12 3 15 32 14 33 -1 34 -2 12 -9 -22
-6 -23 -8 -7 -15 10 -4 23 -2 32 5 8 7 35 10 64 8 41 -2 53 1 66 17 12 14 18
16 21 8 3 -7 21 -13 39 -13 18 0 35 6 38 13 3 10 9 10 26 0 11 -7 48 -13 81
-13 53 0 60 2 60 20 0 21 15 27 25 10z m7306 -326 c37 -40 112 -76 264 -128
138 -48 240 -113 341 -217 72 -75 164 -193 164 -211 0 -5 6 -16 14 -23 7 -8
31 -62 52 -122 50 -139 50 -191 0 -323 -19 -52 -47 -137 -62 -189 -45 -161
-49 -163 -50 -37 0 110 -21 238 -33 204 -3 -10 -3 -75 1 -145 12 -196 11 -314
-1 -326 -9 -9 -10 13 -5 86 4 58 3 125 -4 165 -6 37 -16 103 -22 147 -19 130
-57 262 -106 373 -13 29 -24 55 -24 58 0 14 -36 50 -46 47 -7 -2 -19 25 -29
66 -18 76 -85 203 -146 276 -26 32 -36 51 -29 55 11 7 -64 70 -83 70 -5 0 -46
19 -90 41 -45 23 -106 50 -136 60 -64 22 -82 35 -74 55 6 15 50 43 69 44 6 0
21 -12 35 -26z m-226 -165 c28 -22 82 -62 120 -88 39 -27 88 -63 109 -80 33
-26 45 -30 73 -25 77 14 14 -39 -172 -145 -60 -35 -139 -83 -175 -106 -77 -51
-102 -60 -129 -46 -14 8 -21 8 -24 -2 -2 -6 -2 -99 0 -206 7 -317 -23 -506
-138 -871 -62 -196 -72 -193 -34 9 41 224 65 471 46 471 -6 0 -12 -8 -12 -17
-1 -15 -2 -14 -6 2 -3 11 -17 32 -31 48 -36 38 -20 52 43 39 l47 -10 14 34
c18 43 10 78 -22 93 -21 9 -24 17 -24 61 0 44 -3 50 -20 50 -18 0 -20 4 -15
33 7 36 -24 147 -51 185 -10 14 -23 22 -33 19 -30 -10 -145 -55 -241 -95 -52
-21 -120 -48 -150 -59 -30 -12 -104 -40 -165 -63 -443 -168 -649 -241 -662
-236 -9 4 -13 25 -12 68 0 57 3 65 28 85 16 12 46 27 67 32 22 5 118 35 214
66 96 31 198 62 225 70 79 22 438 132 563 172 125 40 128 43 92 112 -10 21
-44 74 -75 116 l-55 78 31 23 c17 13 45 26 62 30 33 7 38 2 213 -187 56 -61
62 -65 81 -52 36 24 154 60 221 68 38 4 62 12 62 19 0 26 -67 115 -146 195
-46 46 -84 87 -84 91 0 3 10 16 23 27 48 44 80 42 142 -8z m6768 -119 c6 0
-21 -23 -61 -51 -40 -28 -72 -52 -72 -54 0 -2 35 14 79 35 89 44 158 67 168
56 22 -21 -70 -88 -272 -198 -71 -39 -195 -108 -275 -153 -80 -45 -176 -99
-215 -120 -38 -21 -74 -41 -80 -45 -5 -4 -37 -22 -70 -40 -33 -18 -127 -71
-210 -118 -82 -47 -193 -108 -245 -137 -84 -45 -445 -248 -765 -430 -60 -34
-132 -75 -160 -90 -27 -15 -129 -71 -225 -125 -96 -54 -195 -109 -220 -123
-25 -13 -121 -67 -215 -119 -93 -53 -190 -107 -215 -120 -130 -73 -319 -172
-378 -199 -194 -90 -363 -157 -382 -152 -11 3 -27 0 -35 -7 -8 -7 -22 -9 -31
-6 -14 5 -11 11 17 32 35 26 247 154 255 154 3 0 30 16 60 35 30 19 56 35 59
35 3 0 34 18 70 40 36 22 69 40 74 40 5 0 11 3 13 8 2 4 41 27 88 51 138 71
274 143 285 151 10 8 93 52 287 154 130 68 524 286 628 348 41 24 104 59 140
77 36 18 74 38 85 44 11 7 57 33 102 60 45 26 87 47 93 47 5 0 10 4 10 10 0 9
-47 -7 -60 -20 -3 -3 -36 -21 -75 -41 -112 -57 -289 -151 -300 -160 -10 -7
-256 -141 -420 -229 -44 -24 -84 -46 -90 -50 -5 -4 -41 -24 -80 -45 -38 -21
-90 -49 -115 -63 -25 -14 -117 -64 -205 -112 -88 -48 -189 -103 -225 -123
-346 -190 -786 -407 -825 -407 -4 0 -4 7 -1 16 5 13 0 15 -34 9 l-41 -7 28 30
c23 24 164 122 177 122 2 0 48 25 102 56 85 48 296 161 734 392 167 88 419
221 495 262 39 21 158 84 265 140 163 86 608 322 885 470 140 74 262 139 355
187 215 112 528 279 575 305 200 114 397 195 443 182 8 -2 19 -4 25 -4z
m-5318 -358 c-6 -5 -23 -18 -39 -30 -23 -18 -25 -22 -10 -22 15 0 13 -4 -10
-19 -43 -28 -114 -108 -160 -181 -50 -77 -126 -240 -126 -269 0 -11 -4 -23
-10 -26 -5 -3 -10 -15 -10 -26 0 -11 -4 -17 -10 -14 -16 10 -12 40 21 138 73
217 180 374 299 437 36 19 72 27 55 12z m133 -177 c80 -34 161 -146 196 -270
9 -33 21 -73 26 -90 5 -16 14 -91 20 -164 42 -523 -172 -1051 -425 -1051 -64
0 -148 60 -198 141 -127 207 -149 627 -52 979 96 346 266 524 433 455z
m-10108 -295 c0 -12 -43 -43 -170 -125 -114 -73 -214 -166 -332 -307 -87 -105
-128 -134 -128 -90 0 35 279 323 331 340 5 2 33 28 63 57 51 51 97 81 181 117
47 20 55 21 55 8z m2835 -125 c195 -7 235 -12 235 -27 0 -6 -26 -39 -57 -73
-32 -33 -93 -100 -136 -148 -43 -48 -86 -87 -96 -87 -26 0 -92 -34 -126 -65
-103 -96 -177 -154 -211 -165 -28 -9 -77 -11 -184 -6 l-146 6 -139 -49 c-77
-27 -188 -68 -247 -90 -59 -22 -143 -48 -185 -58 -92 -20 -282 -21 -293 -3 -4
7 -13 9 -19 6 -26 -16 -7 28 52 125 138 224 202 318 286 415 127 146 159 178
188 190 30 13 191 30 358 37 90 5 500 0 720 -8z m3618 -46 c63 -13 70 -22 30
-37 -186 -68 -240 -84 -320 -97 -143 -23 -184 -20 -203 16 -7 13 -5 27 10 52
11 19 18 42 14 51 -5 12 0 16 19 16 33 0 43 -16 20 -29 -16 -9 -16 -12 -3 -21
19 -13 42 -12 116 1 86 15 94 18 94 40 0 17 8 19 83 19 46 0 109 -5 140 -11z
m512 -36 c46 -97 68 -371 63 -798 -5 -415 0 -395 -110 -442 -40 -17 -204 -88
-365 -157 -163 -70 -299 -123 -308 -120 -13 5 -15 47 -15 333 -1 248 -5 372
-20 521 -20 193 -24 225 -51 348 -12 58 -12 64 6 82 18 17 130 60 440 166 55
19 143 49 195 68 128 45 143 45 165 -1z m1341 -229 c-3 -8 -8 -83 -11 -167 -3
-84 -8 -177 -10 -207 -11 -121 -16 -340 -9 -352 4 -7 9 -53 11 -103 2 -49 8
-112 13 -138 20 -95 7 -148 -41 -173 -24 -12 -28 -21 -31 -66 -3 -46 -6 -53
-25 -56 -13 -2 -23 -8 -23 -13 0 -11 47 -12 54 -1 3 4 89 -34 193 -85 103 -51
194 -92 202 -93 10 0 11 -7 6 -27 -4 -16 -11 -44 -14 -63 -5 -32 -14 -39 -86
-77 -44 -23 -90 -42 -102 -43 -13 0 -23 -4 -23 -10 0 -5 -5 -10 -11 -10 -7 0
-9 12 -6 33 7 49 -16 83 -76 111 -28 13 -101 47 -162 76 -60 29 -127 59 -148
67 -42 17 -44 36 -4 41 14 2 29 9 34 15 15 20 46 164 40 181 -9 24 -22 19 -34
-11 l-10 -28 -13 30 c-7 17 -14 92 -17 170 -3 77 -10 145 -15 152 -13 16 11
51 31 47 30 -8 38 11 54 133 15 112 36 185 92 318 42 101 60 147 86 229 16 50
29 100 29 112 0 11 3 24 6 27 11 11 26 -4 20 -19z m-10367 -51 c5 -10 12 -40
16 -67 l8 -49 -54 8 c-30 4 -78 8 -107 10 -30 1 -58 7 -63 12 -24 24 73 66
126 55 24 -4 27 -2 22 12 -4 10 -5 22 -1 27 9 15 43 10 53 -8z m-1571 -155
c-2 -6 -51 -22 -109 -35 -115 -27 -172 -42 -269 -71 -36 -11 -94 -25 -130 -31
-36 -7 -96 -19 -135 -27 -38 -9 -92 -19 -120 -24 -27 -4 -129 -23 -225 -42
-213 -43 -429 -83 -530 -98 -41 -6 -93 -15 -115 -21 -22 -5 -94 -23 -160 -38
-66 -16 -147 -36 -180 -44 -62 -16 -169 -32 -194 -30 -8 1 -26 -3 -40 -9 -44
-17 -311 -42 -311 -29 0 10 60 30 113 37 26 4 47 11 47 15 0 5 10 9 23 9 12 0
47 7 77 16 30 8 80 19 110 24 30 5 98 16 150 24 183 30 314 47 328 41 7 -3 28
2 45 10 34 16 78 26 227 53 52 9 98 20 101 24 7 11 146 39 359 74 58 9 114 22
125 27 11 6 58 16 105 23 117 17 167 28 223 47 26 9 73 20 105 23 31 3 93 12
137 20 44 8 101 16 128 19 26 3 57 10 70 15 31 12 49 12 45 -2z m12687 -285
c-4 -17 -13 -23 -34 -23 -36 0 -87 -25 -71 -35 6 -4 19 -3 28 1 9 4 34 8 55 9
35 1 38 -1 31 -19 -4 -12 -9 -91 -11 -176 -2 -85 -8 -159 -14 -166 -5 -6 -35
-15 -65 -19 -31 -4 -81 -15 -113 -26 -78 -26 -84 -17 -76 116 4 55 8 128 9
162 1 34 5 65 9 69 4 4 7 44 7 90 0 76 2 82 19 77 25 -7 38 17 18 32 -10 7
-17 17 -17 24 0 19 31 12 62 -14 16 -14 38 -25 49 -25 10 0 26 -11 35 -25 15
-23 18 -24 29 -9 11 16 12 16 18 0 4 -9 12 -16 18 -16 9 0 10 19 6 68 -4 38
-4 72 1 76 9 9 15 -140 7 -171z m348 -45 c12 -196 42 -392 77 -508 31 -100 30
-101 -52 -139 -40 -19 -81 -37 -90 -42 -22 -11 -32 5 -24 37 4 13 2 54 -4 91
-7 43 -8 75 -2 88 16 32 59 359 66 500 4 69 3 65 15 65 4 0 11 -42 14 -92z
m6380 -194 c23 -5 27 -11 27 -39 l0 -34 -151 -3 -151 -3 -24 -29 c-22 -25 -25
-36 -22 -99 4 -98 20 -109 169 -117 121 -8 144 -17 187 -80 19 -28 22 -46 22
-127 0 -104 -10 -135 -60 -176 -44 -37 -124 -51 -254 -43 -151 9 -156 11 -156
51 l0 34 164 3 c158 3 165 4 190 27 23 22 26 32 26 96 0 58 -4 75 -20 93 -25
27 -41 30 -156 35 -152 5 -197 46 -203 184 -4 102 8 149 48 187 49 47 92 57
221 51 63 -3 127 -8 143 -11z m3427 -34 l0 -40 -115 0 -115 0 0 -335 0 -335
-45 0 -45 0 0 335 0 334 -117 3 -118 3 -3 38 -3 37 280 0 281 0 0 -40z m-1530
-85 l0 -75 81 0 80 0 -3 -37 -3 -38 -77 -3 -78 -3 1 -152 c1 -84 4 -165 8
-182 7 -35 57 -65 109 -65 30 0 32 -2 32 -35 l0 -35 -65 0 c-82 0 -128 19
-152 62 -15 28 -19 62 -21 221 l-4 187 -39 0 c-38 0 -39 1 -39 35 0 30 3 35
23 35 53 0 67 11 67 49 0 20 3 53 6 74 6 34 9 37 40 37 l34 0 0 -75z m-15952
-37 c7 -10 32 -112 32 -133 0 -1 -52 -2 -115 -2 -106 -1 -175 -13 -175 -33 0
-4 40 -10 89 -13 91 -6 133 -21 145 -54 12 -30 -11 -37 -47 -14 -30 18 -39 19
-68 10 -19 -7 -45 -22 -60 -35 -29 -28 -56 -30 -88 -8 -12 9 -37 18 -55 21
-25 3 -37 -2 -61 -27 -45 -47 -101 -34 -93 22 3 22 8 23 85 26 l81 3 -10 35
c-12 46 4 90 41 109 15 7 63 25 108 40 77 25 83 25 119 10 44 -18 51 -15 30
17 -9 14 -13 28 -9 31 11 11 40 8 51 -5z m13456 -56 c16 -9 38 -29 49 -44 27
-37 35 -131 14 -180 -24 -57 -59 -70 -210 -76 l-129 -5 6 -44 c6 -47 28 -87
54 -99 9 -4 76 -10 147 -13 l130 -6 0 -30 c0 -29 -2 -30 -60 -38 -33 -4 -98
-6 -146 -5 -107 5 -154 27 -189 89 -23 41 -25 53 -25 189 0 130 2 150 22 190
37 75 107 103 233 94 44 -3 87 -12 104 -22z m1136 3 c36 -18 56 -44 81 -100
43 -97 35 -293 -15 -368 -27 -41 -98 -77 -152 -77 -23 0 -71 9 -106 20 -34 11
-64 20 -65 20 -2 0 -3 -61 -3 -135 l0 -135 -45 0 -45 0 0 395 0 395 40 0 c32
0 40 -4 40 -18 0 -30 10 -32 51 -11 77 39 159 44 219 14z m583 1 c79 -33 108
-104 108 -261 0 -155 -26 -220 -106 -263 -22 -12 -57 -17 -130 -17 -87 0 -105
3 -141 24 -55 31 -81 81 -95 176 -12 87 0 215 25 263 38 73 115 105 234 97 39
-3 87 -11 105 -19z m548 14 c16 0 19 -7 19 -45 l0 -45 -57 0 c-60 0 -118 -22
-160 -59 -22 -19 -23 -25 -23 -210 l0 -191 -45 0 -45 0 0 275 0 275 35 0 c30
0 35 -4 41 -27 11 -54 12 -54 60 -18 25 19 55 37 67 40 12 2 31 6 42 8 11 3
26 3 33 1 8 -2 22 -4 33 -4z m852 -9 c4 -1 7 -14 7 -31 l0 -30 -120 0 c-151 0
-186 -12 -196 -66 -9 -46 10 -85 46 -95 14 -4 61 -7 105 -8 139 -2 190 -49
182 -168 -8 -113 -49 -144 -197 -150 -52 -2 -122 -1 -155 4 -58 8 -60 9 -60
38 l0 30 153 5 c172 6 172 5 172 82 0 64 -18 75 -140 80 -148 8 -190 41 -190
153 0 142 65 179 290 164 52 -4 98 -7 103 -8z m1286 -10 c49 -25 71 -71 71
-148 0 -119 -37 -144 -222 -151 l-130 -5 7 -36 c18 -106 45 -121 214 -121
l121 0 0 -34 0 -34 -96 -7 c-266 -20 -333 35 -334 277 0 170 37 246 135 274
66 18 183 11 234 -15z m532 3 c18 -11 41 -32 53 -47 20 -27 21 -43 24 -258 l3
-229 -40 0 c-33 0 -41 4 -41 18 0 10 -2 21 -5 24 -3 3 -43 -7 -88 -23 -95 -33
-148 -36 -196 -11 -57 28 -75 62 -75 139 -1 137 48 172 237 173 l117 0 0 28
c0 15 -5 44 -11 64 -15 57 -45 68 -184 68 l-115 0 0 30 c0 31 -1 30 95 44 68
10 194 -2 226 -20z m558 16 c19 -5 47 -22 62 -36 l28 -27 68 31 c134 62 242
49 294 -34 23 -38 24 -47 27 -261 l3 -223 -45 0 -46 0 0 185 c0 200 -7 238
-51 269 -33 22 -103 20 -169 -7 l-54 -22 -1 -210 0 -210 -47 -3 -48 -3 0 198
c0 179 -2 201 -20 230 -11 18 -31 35 -45 39 -41 10 -119 -1 -161 -23 l-39 -20
-3 -211 -2 -212 -45 0 -45 0 0 275 0 275 35 0 c29 0 37 -5 45 -26 6 -14 13
-24 18 -22 104 54 173 68 241 48z m-18559 -79 c58 -56 60 -67 25 -165 -31 -88
-50 -110 -90 -101 -16 4 -47 6 -67 6 -41 -1 -52 20 -21 37 15 9 15 14 4 50
-15 43 -10 69 18 101 11 13 16 30 13 46 -5 30 13 33 28 5 6 -11 15 -20 20 -20
17 0 11 23 -11 46 -12 12 -18 27 -14 33 13 22 46 9 95 -38z m7148 -39 c2 -6
-15 -21 -38 -32 l-42 -22 26 -27 27 -28 -40 -18 c-25 -11 -49 -15 -66 -11 -23
6 -26 4 -20 -13 3 -11 1 -49 -6 -85 l-11 -65 -81 -41 c-45 -22 -89 -40 -98
-40 -10 0 -21 -4 -24 -10 -14 -22 -26 -8 -24 28 4 55 -27 92 -126 153 -84 51
-113 88 -59 75 16 -4 33 -2 43 7 9 7 52 21 96 31 44 10 90 22 103 27 31 12 88
11 110 -1 13 -8 38 1 112 39 96 50 111 54 118 33z m-4577 -25 c96 -32 185 -83
260 -148 59 -52 73 -75 26 -45 -13 9 -32 14 -41 10 -10 -4 -31 4 -54 19 -101
70 -239 109 -387 110 -230 0 -412 -89 -632 -311 -62 -62 -113 -109 -113 -104
0 5 7 15 15 22 8 7 15 18 15 25 0 8 4 15 8 17 11 4 55 78 46 78 -7 0 -15 -8
-80 -84 -47 -55 -43 -37 8 32 158 214 386 367 603 403 89 14 245 3 326 -24z
m-67 -222 c120 -28 203 -74 305 -170 139 -130 245 -348 286 -589 20 -116 20
-362 0 -485 -81 -496 -377 -896 -730 -986 -76 -19 -224 -19 -299 0 -236 62
-442 294 -530 598 -178 613 101 1370 586 1592 112 51 264 67 382 40z m-3106
-188 c30 -32 46 -111 30 -145 -16 -34 -61 -41 -90 -15 -24 20 -57 89 -58 116
0 26 45 67 73 67 13 0 33 -10 45 -23z m-393 -57 c-3 -5 -12 -10 -19 -10 -7 0
-23 -9 -36 -20 l-23 -20 36 0 c40 0 87 -15 87 -28 0 -34 -332 -110 -482 -112
-22 0 -23 28 -3 57 13 18 154 69 365 131 47 13 83 14 75 2z m9860 -177 c14
-13 16 -34 13 -129 -2 -62 -7 -116 -11 -121 -5 -4 -45 -9 -90 -11 -117 -5
-121 -1 -125 131 -3 96 -2 107 17 126 18 18 33 21 100 21 61 0 84 -4 96 -17z
m7786 7 c17 -10 19 -22 19 -130 0 -141 1 -140 -114 -140 -104 0 -106 3 -106
145 0 98 2 115 18 124 22 14 158 14 183 1z m-8293 -17 l52 -6 0 -83 0 -84
-370 0 c-349 0 -373 -1 -409 -20 -51 -26 -79 -62 -86 -113 -3 -23 -6 -147 -8
-275 l-2 -232 290 0 c160 0 334 -3 388 -7 l97 -6 0 -77 0 -77 -52 -7 c-29 -3
-203 -6 -385 -6 l-333 0 0 -354 c0 -195 -3 -361 -6 -370 -5 -13 -24 -16 -105
-16 l-99 0 2 758 3 757 24 52 c37 82 115 145 216 174 32 9 694 3 783 -8z
m7490 -115 c8 -8 12 -63 12 -180 l0 -168 180 0 180 0 0 -80 0 -80 -180 0 -180
0 0 -397 c0 -367 2 -401 19 -439 31 -68 120 -114 223 -114 26 0 58 -4 72 -10
25 -9 26 -13 26 -81 l0 -71 -162 4 c-153 4 -166 5 -214 30 -63 33 -116 91
-136 149 -38 109 -41 143 -37 538 l4 386 -97 3 -98 3 0 64 0 64 53 10 c28 6
75 15 102 19 l50 7 11 163 c7 89 14 169 18 177 7 19 136 21 154 3z m-5881
-334 c129 -26 213 -97 261 -220 39 -98 43 -170 40 -624 l-3 -435 -102 -3 -103
-3 0 448 c0 508 -1 513 -76 589 -97 97 -261 97 -471 -1 l-93 -44 -2 -493 -3
-493 -102 -3 -103 -3 0 636 0 635 80 0 c88 0 92 -3 105 -73 4 -20 11 -40 16
-42 4 -3 41 12 81 33 95 51 176 80 269 97 99 18 117 18 206 -1z m1384 2 c37
-8 84 -23 105 -34 83 -42 155 -141 185 -253 13 -47 26 -931 15 -975 -6 -23
-10 -24 -106 -24 l-100 0 0 444 c0 505 -1 515 -75 590 -70 73 -165 92 -302 61
-84 -19 -143 -41 -208 -77 l-50 -27 -5 -493 -5 -493 -102 -3 -103 -3 0 636 0
635 80 0 c88 0 92 -3 104 -72 4 -21 11 -40 16 -43 5 -3 46 14 92 39 95 50 159
73 261 91 95 17 119 17 198 1z m1422 -6 c72 -22 153 -77 187 -127 26 -38 33
-40 69 -14 82 59 234 121 360 147 187 39 363 -28 445 -169 59 -102 61 -119 61
-637 l0 -475 -102 -3 -103 -3 0 444 c0 508 -1 519 -74 591 -45 45 -118 76
-181 76 -82 0 -235 -44 -346 -100 l-60 -31 7 -67 c6 -53 9 -528 5 -864 l-1
-48 -100 0 -100 0 0 442 c0 390 -2 448 -17 496 -33 104 -131 172 -247 172 -85
0 -223 -39 -321 -91 l-50 -27 -5 -493 -5 -494 -102 -3 -103 -3 0 636 0 635 80
0 c89 0 92 -2 105 -77 4 -24 11 -43 16 -43 5 0 46 20 92 44 173 93 360 126
490 86z m6348 6 c37 -8 84 -23 106 -34 55 -29 120 -103 157 -180 l31 -67 3
-502 3 -503 -100 0 -101 0 0 438 c0 356 -3 446 -15 486 -29 96 -76 145 -163
171 -60 19 -103 19 -194 0 -86 -18 -109 -26 -203 -72 l-70 -34 3 -472 c1 -260
0 -482 -3 -494 -5 -22 -10 -23 -105 -23 l-100 0 0 635 0 636 82 -3 83 -3 14
-55 c8 -30 15 -56 17 -58 1 -2 53 21 115 52 179 86 307 110 440 82z m-4200
-10 c228 -41 325 -162 363 -453 20 -152 20 -229 1 -373 -24 -177 -52 -250
-126 -334 -102 -115 -353 -166 -598 -120 -152 28 -238 86 -299 202 -58 110
-67 169 -67 447 0 234 2 255 24 325 74 238 201 317 516 319 61 0 144 -6 186
-13z m2782 0 c190 -37 289 -136 343 -341 15 -57 18 -110 18 -295 1 -203 -2
-233 -22 -308 -42 -157 -103 -242 -206 -292 -171 -81 -474 -80 -644 3 -162 78
-231 258 -232 596 0 347 77 530 255 606 103 44 342 59 488 31z m-8833 -641 l0
-635 -100 0 -100 0 0 635 0 635 100 0 100 0 0 -635z m7795 0 l0 -630 -102 -3
-103 -3 0 636 0 636 103 -3 102 -3 0 -630z m-1217 -1072 c50 -6 53 -7 50 -32
-3 -26 -3 -26 -100 -26 -115 0 -131 -9 -132 -79 -1 -64 15 -76 114 -85 76 -6
85 -9 111 -39 26 -29 29 -40 29 -100 0 -74 -13 -103 -58 -126 -37 -19 -125
-27 -197 -18 -57 7 -60 9 -63 36 l-4 28 61 -7 c71 -8 152 1 178 20 13 10 18
27 18 65 0 66 -17 80 -99 80 -71 0 -125 23 -143 60 -18 35 -16 125 2 165 28
58 94 75 233 58z m1840 -13 c49 -32 67 -125 37 -197 -8 -20 -59 -80 -112 -135
l-97 -98 122 0 122 0 0 -30 0 -30 -170 0 -170 0 0 29 c0 24 17 46 98 121 120
112 152 158 152 215 0 66 -21 79 -141 83 -96 4 -99 5 -99 27 0 29 22 34 145
31 58 -1 98 -7 113 -16z m437 4 c57 -27 71 -97 60 -301 -7 -135 -8 -137 -37
-165 -29 -27 -34 -28 -135 -28 -173 0 -187 21 -181 277 3 177 8 190 73 219 43
19 179 18 220 -2z m440 1 c50 -24 55 -47 55 -250 l0 -183 -31 -31 c-30 -31
-32 -31 -136 -31 -173 0 -187 21 -181 276 3 174 5 180 63 216 39 24 181 25
230 3z m295 -240 l0 -255 -30 0 -30 0 0 221 0 221 -32 -8 c-54 -12 -72 -10
-76 9 -4 21 85 66 136 66 l32 1 0 -255z m-2477 114 c66 -18 77 -49 77 -221 l0
-148 -30 0 -30 0 0 126 c0 120 -7 159 -34 176 -19 13 -86 9 -116 -7 l-30 -16
0 -140 0 -140 -32 3 -33 3 0 180 0 180 23 3 c14 2 29 -4 36 -13 11 -15 16 -16
37 -5 19 11 55 22 89 29 3 0 22 -4 43 -10z m-313 -184 l0 -185 -35 0 -35 0 0
185 0 185 35 0 35 0 0 -185z m745 160 c0 -18 -9 -21 -75 -26 -89 -6 -104 -12
-119 -45 -16 -36 -14 -149 4 -183 18 -37 31 -41 121 -41 71 0 74 -1 74 -24 0
-22 -5 -24 -68 -31 -159 -16 -220 46 -210 210 5 81 28 132 69 153 15 8 57 11
114 10 82 -3 90 -5 90 -23z m326 -2 c16 -15 24 -38 27 -77 4 -48 2 -57 -21
-80 -24 -24 -33 -26 -117 -26 l-90 0 0 -34 c0 -57 35 -76 136 -76 82 0 84 -1
84 -24 0 -23 -5 -25 -65 -31 -175 -19 -234 37 -223 215 9 133 40 163 170 158
64 -3 81 -7 99 -25z m-24851 -1315 l65 -103 3 103 c3 101 3 102 28 102 l25 0
-3 -147 c-3 -139 -4 -148 -22 -148 -14 0 -39 30 -85 104 l-66 103 -3 -106 c-2
-98 -4 -106 -22 -106 -19 0 -20 8 -20 150 0 190 7 194 100 48z m340 82 c0 -17
-8 -19 -67 -22 l-68 -3 -3 -42 -3 -43 65 0 c59 0 66 -2 66 -20 0 -18 -7 -20
-65 -20 l-65 0 0 -40 0 -40 70 0 c68 0 70 -1 70 -25 0 -24 -2 -25 -72 -25 -40
0 -78 4 -85 8 -22 14 -33 62 -33 142 0 80 11 128 33 142 7 4 45 8 85 8 65 0
72 -2 72 -20z m90 -72 c13 -51 26 -99 29 -106 4 -7 20 34 37 90 25 86 33 104
51 106 14 2 23 -3 26 -15 3 -10 18 -58 33 -108 l27 -90 27 105 c22 91 29 105
48 108 12 2 22 -2 22 -8 0 -7 -16 -74 -37 -151 -32 -125 -38 -139 -58 -139
-19 0 -25 13 -50 101 -16 55 -32 102 -35 104 -4 2 -20 -42 -37 -98 -27 -91
-32 -102 -53 -102 -21 0 -26 11 -61 145 -21 80 -38 146 -39 148 0 1 11 2 24 2
22 0 26 -8 46 -92z m498 70 c3 -16 -5 -18 -55 -18 -63 0 -83 -11 -83 -47 0
-27 27 -43 73 -43 53 0 85 -50 72 -110 -8 -38 -49 -60 -109 -60 -57 0 -76 8
-76 31 0 16 6 17 48 12 66 -7 94 8 90 50 -3 31 -5 32 -55 37 -58 6 -80 22 -83
60 -4 50 0 70 20 90 18 18 31 20 88 18 54 -2 67 -6 70 -20z m1042 2 c0 -17 -7
-20 -40 -20 l-39 0 -3 -127 c-3 -124 -4 -128 -25 -131 -23 -3 -23 -3 -23 127
l0 131 -45 0 c-38 0 -45 3 -45 20 0 19 7 20 110 20 103 0 110 -1 110 -20z
m208 -2 c3 -16 -5 -18 -60 -18 -73 0 -88 -10 -88 -57 l0 -33 65 0 c58 0 65 -2
65 -20 0 -18 -7 -20 -66 -20 l-65 0 3 -37 3 -38 70 -5 c62 -4 70 -7 70 -25 0
-18 -8 -20 -69 -23 -49 -2 -75 1 -92 13 -23 15 -24 20 -24 132 0 150 4 155
109 151 63 -3 76 -6 79 -20z m220 -128 l50 -150 -23 0 c-20 0 -27 8 -36 40
l-12 41 -55 -3 c-53 -3 -56 -4 -67 -38 -8 -24 -19 -36 -33 -38 -12 -2 -22 1
-22 5 0 9 69 217 89 266 7 19 18 27 35 27 22 0 28 -11 74 -150z m176 43 c16
-57 33 -103 36 -103 3 0 20 46 36 103 26 84 35 103 52 105 25 4 27 -3 42 -143
6 -55 13 -112 16 -127 5 -25 2 -28 -19 -28 -23 0 -25 5 -31 58 -4 31 -9 75
-13 97 -7 45 -4 50 -43 -82 -16 -57 -25 -73 -39 -73 -15 0 -24 16 -41 73 -39
133 -36 127 -43 82 -4 -22 -9 -66 -13 -97 -5 -46 -10 -58 -23 -58 -10 0 -20 2
-22 5 -5 5 17 231 27 273 3 17 11 22 26 20 17 -2 26 -21 52 -105z m1206 87 c0
-17 -8 -19 -67 -22 l-68 -3 -3 -42 -3 -43 66 0 c58 0 66 -2 63 -17 -3 -15 -16
-19 -66 -21 l-62 -3 0 -39 0 -40 70 0 c68 0 70 -1 70 -25 0 -24 -2 -25 -75
-25 -109 0 -115 8 -115 150 0 142 6 150 115 150 68 0 75 -2 75 -20z m107 -97
l39 -117 40 115 c34 97 43 114 63 117 18 3 22 0 17 -15 -3 -10 -25 -76 -49
-148 -40 -119 -46 -130 -69 -133 -25 -3 -28 3 -76 147 -50 151 -50 151 -27
151 21 0 27 -12 62 -117z m371 95 c3 -16 -5 -18 -60 -18 -73 0 -88 -10 -88
-57 l0 -33 65 0 c58 0 65 -2 65 -20 0 -18 -7 -20 -66 -20 l-65 0 3 -37 3 -38
70 -5 c62 -4 70 -7 70 -25 0 -18 -8 -20 -69 -23 -49 -2 -75 1 -92 13 -23 15
-24 20 -24 132 0 150 4 155 109 151 63 -3 76 -6 79 -20z m142 -80 l65 -103 3
103 c3 101 3 102 28 102 l25 0 -3 -147 c-3 -139 -4 -148 -22 -148 -14 0 -39
30 -85 104 l-66 103 -3 -106 c-2 -98 -4 -106 -22 -106 -19 0 -20 8 -20 150 0
190 7 194 100 48z m350 82 c0 -17 -7 -20 -40 -20 l-39 0 -3 -127 c-3 -124 -4
-128 -25 -131 -23 -3 -23 -3 -23 127 l0 131 -45 0 c-38 0 -45 3 -45 20 0 19 7
20 110 20 103 0 110 -1 110 -20z m198 -2 c3 -16 -5 -18 -55 -18 -63 0 -83 -11
-83 -47 0 -27 27 -43 73 -43 53 0 85 -50 72 -110 -8 -38 -49 -60 -109 -60 -57
0 -76 8 -76 31 0 16 6 17 48 12 66 -7 94 8 90 50 -3 31 -5 32 -55 37 -58 6
-80 22 -83 60 -4 50 0 70 20 90 18 18 31 20 88 18 54 -2 67 -6 70 -20z m1350
0 c3 -16 -5 -18 -55 -18 -63 0 -83 -11 -83 -47 0 -27 27 -43 73 -43 53 0 85
-50 72 -110 -8 -38 -49 -60 -109 -60 -57 0 -76 8 -76 31 0 16 6 17 48 12 66
-7 94 8 90 50 -3 31 -5 32 -55 37 -58 6 -80 22 -83 60 -4 50 0 70 20 90 18 18
31 20 88 18 54 -2 67 -6 70 -20z m221 -2 c18 -19 23 -37 24 -76 1 -68 -22 -92
-97 -98 l-56 -4 0 -50 c0 -46 -2 -49 -22 -46 -23 3 -23 6 -26 151 l-3 147 79
0 c70 0 81 -3 101 -24z m248 0 c26 -22 28 -31 31 -109 6 -126 -23 -167 -114
-167 -81 0 -114 46 -113 155 1 106 33 145 121 145 35 0 54 -6 75 -24z m181
-78 l67 -103 3 103 c2 94 4 102 22 102 19 0 20 -8 20 -150 0 -128 -2 -150 -15
-150 -9 0 -47 48 -85 107 l-70 107 0 -108 c0 -106 0 -107 -22 -104 -23 3 -23
6 -26 151 -2 143 -2 147 18 147 15 0 39 -28 88 -102z m330 80 c3 -16 -5 -18
-55 -18 -63 0 -83 -11 -83 -47 0 -27 27 -43 73 -43 53 0 85 -50 72 -110 -8
-38 -49 -60 -109 -60 -57 0 -76 8 -76 31 0 16 6 17 48 12 66 -7 94 8 90 50 -3
31 -5 32 -55 37 -58 6 -80 22 -83 60 -4 50 0 70 20 90 18 18 31 20 88 18 54
-2 67 -6 70 -20z m224 11 c43 -23 64 -151 37 -228 -28 -79 -172 -84 -204 -6
-31 72 -12 208 32 234 24 14 109 14 135 0z m255 -4 c12 -8 24 -29 28 -45 8
-35 -10 -96 -32 -108 -13 -8 -13 -14 5 -48 34 -67 36 -84 13 -84 -15 0 -29 16
-51 60 -27 53 -34 60 -60 60 -30 0 -30 0 -30 -60 0 -53 -2 -60 -20 -60 -19 0
-20 7 -20 150 l0 150 73 0 c48 0 80 -5 94 -15z m241 -7 c3 -16 -5 -18 -55 -18
-63 0 -83 -11 -83 -47 0 -27 27 -43 73 -43 53 0 85 -50 72 -110 -8 -38 -49
-60 -109 -60 -57 0 -76 8 -76 31 0 16 6 17 48 12 66 -7 94 8 90 50 -3 31 -5
32 -55 37 -58 6 -80 22 -83 60 -4 50 0 70 20 90 18 18 31 20 88 18 54 -2 67
-6 70 -20z m1031 13 c30 -19 5 -35 -50 -33 -30 1 -60 -2 -67 -6 -30 -20 -38
-150 -11 -193 6 -10 28 -14 71 -14 50 0 63 -4 66 -16 3 -19 -24 -29 -80 -29
-88 0 -118 38 -118 150 0 74 16 121 47 139 22 13 123 14 142 2z m211 -4 c72
-36 64 -246 -11 -277 -39 -17 -116 -7 -140 17 -45 45 -41 209 6 251 30 25 103
30 145 9z m194 -89 l61 -97 3 100 c3 98 3 99 27 99 l25 0 0 -150 c0 -190 -7
-194 -100 -48 l-65 101 -3 -101 c-3 -101 -3 -102 -27 -102 l-25 0 0 151 c0
148 0 150 22 147 15 -2 40 -33 82 -100z m356 82 c0 -17 -7 -20 -45 -20 l-45 0
0 -131 c0 -130 0 -130 -22 -127 -22 3 -23 7 -26 131 l-3 127 -39 0 c-33 0 -40
3 -40 20 0 19 7 20 110 20 103 0 110 -1 110 -20z m140 -12 c32 -91 90 -261 90
-264 0 -2 -11 -4 -23 -4 -19 0 -26 8 -36 40 l-12 40 -53 0 c-53 0 -53 0 -69
-40 -11 -29 -21 -40 -36 -40 -12 0 -21 1 -21 3 0 3 86 261 95 285 2 6 15 12
29 12 18 0 27 -8 36 -32z m284 26 c9 -3 16 -14 16 -23 0 -13 -9 -15 -52 -13
-81 5 -93 -8 -93 -107 0 -52 4 -84 13 -93 8 -8 37 -13 73 -13 49 1 59 -2 59
-16 0 -22 -20 -29 -80 -29 -69 0 -101 29 -110 98 -17 136 19 202 110 202 26 0
55 -3 64 -6z m246 -14 c0 -17 -7 -20 -40 -20 l-39 0 -3 -127 c-3 -124 -4 -128
-25 -131 -23 -3 -23 -3 -23 127 l0 131 -45 0 c-38 0 -45 3 -45 20 0 19 7 20
110 20 103 0 110 -1 110 -20z m1020 0 c0 -17 -7 -20 -45 -20 l-45 0 0 -130 c0
-123 -1 -130 -20 -130 -19 0 -20 7 -20 130 l0 130 -45 0 c-38 0 -45 3 -45 20
0 19 7 20 110 20 103 0 110 -1 110 -20z m208 -2 c3 -16 -5 -18 -60 -18 -73 0
-88 -10 -88 -57 l0 -33 65 0 c58 0 65 -2 65 -20 0 -18 -7 -20 -66 -20 l-65 0
3 -37 3 -38 70 -5 c62 -4 70 -7 70 -25 0 -18 -8 -20 -69 -23 -49 -2 -75 1 -92
13 -23 15 -24 20 -24 132 0 150 4 155 109 151 63 -3 76 -6 79 -20z m210 0 c3
-16 -5 -18 -55 -18 -63 0 -83 -11 -83 -47 0 -27 27 -43 73 -43 53 0 85 -50 72
-110 -8 -38 -49 -60 -109 -60 -57 0 -76 8 -76 31 0 16 6 17 48 12 66 -7 94 8
90 50 -3 31 -5 32 -55 37 -58 6 -80 22 -83 60 -4 50 0 70 20 90 18 18 31 20
88 18 54 -2 67 -6 70 -20z m242 2 c0 -17 -7 -20 -45 -20 l-45 0 0 -130 c0
-123 -1 -130 -20 -130 -19 0 -20 7 -20 130 l0 130 -45 0 c-38 0 -45 3 -45 20
0 19 7 20 110 20 103 0 110 -1 110 -20z m-6888 -112 l-62 -63 -62 63 -63 62
125 0 125 0 -63 -62z m13068 -1677 c0 -104 10 -131 49 -131 59 0 61 3 61 111
0 92 1 99 20 99 19 0 20 -7 20 -99 0 -114 -12 -138 -72 -148 -52 -8 -94 12
-107 49 -6 17 -11 69 -11 114 0 77 2 84 20 84 18 0 20 -7 20 -79z m362 62 c12
-11 18 -30 18 -61 0 -60 -20 -82 -76 -82 l-43 0 -3 -42 c-2 -35 -7 -43 -23
-43 -19 0 -20 8 -23 123 l-3 122 67 0 c49 0 73 -5 86 -17z m238 -3 c0 -17 -5
-19 -42 -14 -66 9 -82 -9 -82 -88 0 -35 4 -69 8 -76 4 -7 30 -12 62 -12 39 0
54 -4 54 -14 0 -29 -96 -35 -130 -8 -44 35 -46 166 -4 213 13 15 31 19 76 19
51 0 58 -2 58 -20z m215 0 c34 -38 36 -173 3 -206 -21 -21 -83 -29 -117 -14
-34 14 -51 52 -51 116 0 51 15 94 37 112 28 20 107 15 128 -8z m172 -71 c30
-101 28 -102 64 19 16 57 25 72 40 72 10 0 19 -1 19 -2 0 -2 7 -55 14 -118 15
-117 14 -130 -8 -130 -14 0 -26 50 -26 107 0 57 -17 44 -37 -30 -27 -101 -45
-101 -74 -3 -12 42 -24 74 -26 72 -3 -2 -8 -34 -13 -71 -9 -73 -12 -80 -33
-72 -11 4 -11 22 -1 113 7 60 13 115 14 122 0 6 9 12 20 12 15 0 24 -17 47
-91z m413 5 l55 -86 3 86 c3 78 5 86 23 86 19 0 19 -6 17 -122 -4 -152 -12
-156 -88 -39 l-55 84 -3 -87 c-2 -76 -5 -87 -20 -84 -15 3 -17 19 -20 126 -2
111 -1 122 15 122 12 0 38 -31 73 -86z m320 67 c0 -16 -6 -17 -49 -13 -42 4
-50 1 -65 -19 -18 -26 -21 -94 -6 -134 9 -23 15 -26 47 -23 35 3 38 6 41 36 3
29 1 32 -22 32 -16 0 -26 6 -26 15 0 11 12 15 45 15 l45 0 0 -68 0 -69 -64 1
c-76 1 -101 19 -111 78 -10 55 3 126 26 149 28 28 139 28 139 0z m355 -1 c0
-11 -14 -16 -57 -18 -57 -3 -58 -4 -58 -32 0 -28 3 -30 50 -36 32 -4 50 -11
50 -20 0 -10 -14 -14 -50 -14 l-50 0 0 -35 0 -34 58 -3 c43 -2 57 -7 57 -18 0
-23 -117 -27 -139 -5 -20 21 -23 204 -4 223 19 19 143 12 143 -8z m118 -73
c16 -49 33 -85 37 -80 4 4 20 45 36 91 22 63 33 82 47 82 11 0 17 -5 15 -12
-3 -7 -22 -64 -43 -126 -32 -98 -40 -113 -57 -110 -16 2 -29 28 -64 126 -41
117 -42 123 -22 120 17 -2 27 -21 51 -91z m342 73 c0 -11 -14 -16 -57 -18 -57
-3 -58 -4 -58 -32 0 -28 3 -30 50 -36 32 -4 50 -11 50 -20 0 -10 -14 -14 -50
-14 l-50 0 0 -35 0 -34 58 -3 c43 -2 57 -7 57 -18 0 -23 -117 -27 -139 -5 -20
21 -23 204 -4 223 19 19 143 12 143 -8z m155 -66 l55 -86 3 86 c3 78 5 86 23
86 19 0 19 -6 17 -122 -4 -152 -12 -156 -88 -39 l-55 84 -3 -87 c-2 -76 -5
-87 -20 -84 -15 3 -17 19 -20 126 -2 111 -1 122 15 122 12 0 38 -31 73 -86z
m320 66 c0 -16 -7 -20 -35 -20 l-35 0 0 -106 c0 -95 -2 -105 -17 -102 -16 3
-18 17 -21 106 l-3 102 -34 0 c-28 0 -35 4 -35 20 0 19 7 20 90 20 83 0 90 -1
90 -20z m195 0 c0 -11 -11 -14 -46 -12 -82 6 -99 -56 -19 -70 24 -4 51 -14 59
-23 19 -18 18 -82 -1 -102 -30 -30 -138 -29 -138 2 0 10 16 15 58 17 56 3 57
3 57 33 0 26 -4 30 -30 33 -60 5 -73 12 -84 42 -11 33 0 78 22 92 7 5 37 7 67
6 40 -2 55 -7 55 -18z m3145 -340 c0 -20 -7 -20 -3200 -20 -3193 0 -3200 0
-3200 20 0 20 7 20 3200 20 3193 0 3200 0 3200 -20z m-21360 -187 l125 -196 3
197 2 197 38 -3 37 -3 3 -268 2 -268 -36 3 c-36 3 -40 7 -158 193 l-121 189
-3 -192 -2 -192 -40 0 -40 0 0 270 0 270 33 0 c31 -1 37 -8 157 -197z m558
191 l92 -7 0 -33 0 -34 -118 0 c-78 0 -122 -4 -130 -12 -7 -7 -12 -40 -12 -80
l0 -68 115 0 115 0 0 -35 0 -35 -115 0 -115 0 0 -64 c0 -92 6 -96 146 -96
l114 0 0 -35 0 -35 -107 -1 c-136 -2 -152 0 -184 17 -41 21 -49 61 -49 251 0
189 8 229 51 250 52 25 63 26 197 17z m295 -198 c28 -109 53 -192 57 -185 4 8
31 98 60 202 l54 187 36 0 36 0 53 -187 c29 -104 56 -194 60 -201 4 -7 30 76
57 185 l50 198 37 3 c29 3 37 0 37 -14 0 -14 -31 -138 -121 -486 -9 -36 -12
-38 -49 -38 -38 0 -40 1 -53 48 -8 26 -34 113 -58 195 -24 81 -46 147 -49 147
-4 0 -33 -88 -65 -195 l-58 -195 -38 0 c-27 0 -39 5 -43 18 -3 9 -33 123 -66
252 -33 129 -63 243 -66 253 -5 16 0 18 37 15 l43 -3 49 -199z m882 196 c36
-7 40 -11 43 -39 l3 -32 -106 2 c-101 2 -108 1 -126 -22 -23 -28 -25 -78 -4
-107 12 -17 28 -22 95 -27 50 -3 90 -11 106 -22 39 -25 57 -78 52 -153 -4 -57
-8 -68 -35 -92 -39 -35 -117 -52 -197 -45 -102 10 -106 12 -106 45 l0 30 108
0 c135 0 152 9 152 80 0 68 -15 80 -98 80 -122 0 -166 42 -165 158 1 73 19
106 74 134 36 19 128 23 204 10z m19456 -345 c24 -13 58 -43 74 -66 l30 -43 0
-448 0 -448 -30 -43 c-16 -23 -50 -53 -74 -66 l-44 -23 -2987 0 -2987 0 -44
23 c-24 13 -57 43 -74 66 l-30 43 0 448 0 448 30 43 c17 23 50 53 74 66 l44
23 2987 0 2987 0 44 -23z m-19331 -357 c0 -20 -7 -20 -1050 -20 -1043 0 -1050
0 -1050 20 0 20 7 20 1050 20 1043 0 1050 0 1050 -20z m19331 -863 c24 -13 58
-43 74 -66 l30 -43 0 -448 0 -448 -30 -43 c-16 -23 -50 -53 -74 -66 l-44 -23
-2987 0 -2987 0 -44 23 c-24 13 -57 43 -74 66 l-30 43 0 448 0 448 30 43 c17
23 50 53 74 66 l44 23 2987 0 2987 0 44 -23z m-19105 -52 c0 -16 -3 -35 -8
-42 -5 -6 -5 -14 0 -17 5 -3 7 -27 5 -53 -3 -26 -4 -52 -3 -58 6 -79 8 -81 69
-79 28 2 54 -2 57 -7 4 -7 -16 -10 -55 -8 -33 1 -64 -1 -68 -4 -3 -4 2 -7 12
-7 17 0 17 -1 0 -20 -15 -16 -18 -38 -18 -126 0 -132 -15 -114 -18 23 -2 60
-6 100 -12 96 -5 -3 -13 1 -18 8 -6 9 -9 10 -9 2 0 -6 7 -18 15 -27 9 -9 11
-17 5 -21 -5 -3 -10 -1 -10 5 0 6 -6 10 -12 9 -25 -3 -38 1 -38 12 0 8 5 8 15
-1 8 -7 15 -8 15 -2 0 14 -27 35 -38 28 -4 -2 -27 -7 -50 -10 -30 -3 -42 -1
-42 8 0 8 13 12 40 10 22 -1 56 2 75 6 21 5 38 4 41 -2 13 -20 27 0 29 40 1
23 -1 42 -4 42 -4 0 -6 38 -6 84 1 47 -3 82 -7 80 -4 -3 -8 -1 -8 5 0 5 5 11
11 13 8 3 6 10 -5 20 -22 22 -21 24 12 23 23 0 27 -4 28 -30z m1884 -27 c0
-35 -4 -68 -8 -75 -13 -20 -33 2 -30 33 3 27 1 28 -44 32 -29 2 -48 -1 -48 -7
0 -5 9 -8 20 -6 11 2 22 0 25 -4 2 -5 -9 -7 -25 -6 -31 3 -57 -23 -42 -41 4
-5 0 -3 -9 4 -9 6 -20 8 -24 4 -5 -4 -5 -1 0 7 5 9 1 19 -11 28 -17 14 -16 14
19 10 25 -3 37 -1 37 7 0 9 -41 17 -127 26 -71 7 -173 21 -228 30 l-100 18
298 1 297 1 0 -62z m2983 -24 c0 -43 -2 -90 -2 -104 -2 -41 3 -78 12 -86 4 -4
30 -8 56 -8 27 -1 53 -5 58 -9 4 -5 -20 -7 -54 -6 -35 1 -66 -1 -70 -4 -7 -8
-1 -9 67 -12 25 -1 51 2 58 7 8 7 12 7 12 -1 0 -6 14 -11 30 -11 21 0 30 -5
30 -16 0 -12 -3 -14 -13 -6 -8 7 -18 6 -31 -4 -27 -19 -41 -18 -25 4 13 16 13
16 -7 0 -24 -21 -56 -26 -36 -6 7 7 12 16 12 22 0 5 -8 -1 -19 -12 -23 -28
-38 -28 -46 -1 -6 19 -9 19 -22 7 -10 -11 -14 -43 -15 -122 -2 -133 -16 -117
-19 21 -2 79 -5 100 -16 96 -7 -3 -13 1 -13 8 0 7 -3 9 -7 6 -3 -4 2 -15 11
-26 11 -12 14 -21 7 -26 -6 -3 -11 -1 -11 5 0 6 -6 10 -12 9 -25 -3 -38 1 -38
12 0 8 5 8 15 -1 8 -7 15 -8 15 -2 0 14 -27 35 -38 28 -4 -2 -27 -7 -50 -10
-30 -3 -42 -1 -42 8 0 8 13 12 40 10 22 -1 56 2 75 6 21 5 38 4 41 -2 3 -5 11
-7 17 -5 11 3 18 87 7 87 -4 0 -5 42 -3 94 2 74 0 98 -12 109 -13 14 -13 16 3
20 33 9 37 1 35 -79z m1897 24 c0 -35 -4 -68 -8 -75 -13 -20 -33 2 -30 32 2
23 -1 28 -22 31 -230 28 -250 29 -250 13 0 -5 6 -7 13 -3 7 4 9 3 4 -2 -5 -5
-18 -9 -29 -9 -12 0 -23 -5 -25 -11 -2 -7 7 -11 26 -9 22 2 28 -1 24 -12 -5
-12 -7 -12 -14 -1 -7 10 -9 10 -9 -2 0 -13 -1 -13 -10 0 -5 8 -10 11 -10 6 0
-6 -5 -5 -11 1 -8 8 -7 17 4 33 11 15 16 18 20 8 3 -8 6 -6 6 5 1 16 -6 18
-48 15 -27 -1 -47 0 -45 3 3 6 -31 12 -136 26 -25 3 -47 7 -49 9 -2 2 131 4
297 4 l302 0 0 -62z m2976 27 c0 -16 -3 -35 -8 -42 -5 -6 -5 -14 0 -17 5 -3 7
-27 5 -53 -3 -26 -4 -52 -3 -58 6 -79 8 -81 69 -79 28 2 54 -2 57 -7 4 -7 -16
-10 -55 -8 -33 1 -64 -1 -68 -4 -3 -4 2 -7 12 -7 17 0 17 -1 0 -20 -15 -16
-18 -38 -18 -126 0 -132 -15 -114 -18 23 -2 60 -6 100 -12 96 -5 -3 -13 1 -18
8 -6 9 -9 10 -9 2 0 -6 7 -18 15 -27 9 -9 11 -17 5 -21 -5 -3 -10 -1 -10 5 0
6 -6 10 -12 9 -25 -3 -38 1 -38 12 0 8 5 8 15 -1 8 -7 15 -8 15 -2 0 14 -27
35 -38 28 -4 -2 -27 -7 -50 -10 -30 -3 -42 -1 -42 8 0 8 13 12 40 10 22 -1 56
2 75 6 21 5 38 4 41 -2 13 -20 27 0 29 40 1 23 -1 42 -4 42 -4 0 -6 38 -6 84
1 47 -3 82 -7 80 -4 -3 -8 -1 -8 5 0 5 5 11 11 13 8 3 6 10 -5 20 -22 22 -21
24 12 23 23 0 27 -4 28 -30z m1884 -27 c0 -35 -4 -68 -8 -75 -13 -20 -33 2
-30 33 3 27 1 28 -44 32 -29 2 -48 -1 -48 -7 0 -5 9 -8 20 -6 11 2 22 0 25 -4
2 -5 -9 -7 -25 -6 -31 3 -57 -23 -42 -41 4 -5 0 -3 -9 4 -9 6 -20 8 -24 4 -5
-4 -5 -1 0 7 5 9 1 19 -11 28 -17 14 -16 14 19 10 25 -3 37 -1 37 7 0 9 -41
17 -127 26 -71 7 -173 21 -228 30 l-100 18 298 1 297 1 0 -62z m-9585 -178
c-17 -7 -17 -9 -2 -9 12 -1 17 -9 17 -32 0 -16 -4 -28 -8 -25 -5 3 -9 -1 -9
-9 0 -8 3 -12 7 -10 4 2 7 -9 8 -25 l1 -30 -60 0 c-43 0 -58 -3 -53 -12 4 -7
3 -8 -4 -4 -7 4 -12 23 -12 43 l0 35 50 -4 c28 -1 50 0 50 4 0 4 -21 8 -47 10
-46 3 -48 4 -48 33 0 29 2 30 43 29 23 0 42 3 42 8 0 4 10 8 23 7 21 0 21 -1
2 -9z m4880 0 c-17 -7 -17 -9 -2 -9 12 -1 17 -9 17 -32 0 -16 -4 -28 -8 -25
-5 3 -9 -1 -9 -9 0 -8 3 -12 7 -10 4 2 7 -9 8 -25 l1 -30 -60 0 c-43 0 -58 -3
-53 -12 4 -7 3 -8 -4 -4 -7 4 -12 23 -12 43 l0 35 50 -4 c28 -1 50 0 50 5 0 4
-23 7 -51 7 l-50 0 3 33 c3 31 5 32 46 31 23 0 42 3 42 8 0 4 10 8 23 7 21 0
21 -1 2 -9z m4860 0 c-17 -7 -17 -9 -2 -9 12 -1 17 -9 17 -32 0 -16 -4 -28 -8
-25 -5 3 -9 -1 -9 -9 0 -8 3 -12 7 -10 4 2 7 -9 8 -25 l1 -30 -60 0 c-43 0
-58 -3 -53 -12 4 -7 3 -8 -4 -4 -7 4 -12 23 -12 43 l0 35 50 -4 c28 -1 50 0
50 4 0 4 -21 8 -47 10 -46 3 -48 4 -48 33 0 29 2 30 43 29 23 0 42 3 42 8 0 4
10 8 23 7 21 0 21 -1 2 -9z m-6890 -450 c9 0 13 5 10 10 -3 6 -2 10 4 10 5 0
11 -5 13 -10 2 -6 61 -12 143 -14 193 -6 396 -38 552 -87 70 -22 137 -44 148
-48 11 -5 38 -16 60 -25 23 -10 60 -19 84 -20 24 -2 46 -8 50 -13 13 -20 56
-35 123 -44 91 -11 120 -26 130 -66 6 -24 15 -33 31 -34 17 -1 18 -2 5 -6 -10
-2 -18 -13 -18 -24 0 -56 -41 -80 -77 -47 -38 35 -109 32 -164 -7 -51 -36
-125 -168 -112 -201 3 -8 0 -14 -6 -14 -6 0 -11 5 -11 10 0 6 -4 10 -10 10 -5
0 -7 -7 -3 -16 5 -15 3 -15 -20 1 -18 11 -27 13 -27 6 0 -7 -5 -9 -11 -5 -8 5
-8 9 1 14 9 6 11 25 5 76 -5 38 -10 61 -12 52 -6 -26 -23 -22 -24 5 -1 21 -1
21 -9 -3 -7 -21 -8 -22 -10 -5 -1 11 -4 14 -7 8 -9 -23 -31 -15 -27 10 4 15 1
13 -9 -8 -14 -30 -12 -55 4 -55 14 0 10 -17 -5 -23 -11 -4 -13 -1 -9 10 7 18
-8 12 -40 -16 -17 -14 -17 -13 -8 13 16 40 12 56 -4 21 -9 -18 -14 -23 -15
-13 0 11 -5 15 -14 12 -8 -3 -12 -13 -10 -22 5 -16 5 -16 -8 0 -13 15 -15 15
-26 -3 -7 -10 -19 -19 -27 -19 -21 0 -19 -17 4 -23 14 -3 18 -12 15 -37 -2
-17 -7 -37 -10 -43 -4 -7 -4 -9 1 -5 4 4 17 3 28 -3 10 -6 17 -7 14 -2 -8 13
8 36 27 39 20 3 21 -29 1 -46 -8 -7 -26 -9 -44 -5 -21 4 -53 -2 -103 -20 -40
-14 -80 -24 -90 -22 -10 3 -16 2 -13 -3 3 -4 -12 -11 -33 -15 -20 -3 -48 -9
-61 -12 -18 -4 -22 -3 -16 7 11 17 -36 3 -51 -16 -9 -12 -13 3 -19 65 -4 44
-13 97 -20 118 -16 45 -28 48 -135 28 -41 -8 -84 -16 -95 -18 -11 -2 -41 -10
-67 -16 l-46 -13 14 -46 c8 -27 13 -83 12 -132 0 -47 -3 -71 -5 -55 -5 31 -23
60 -23 36 0 -7 -6 -11 -14 -8 -8 3 -16 2 -18 -2 -4 -11 -140 -53 -147 -45 -3
3 1 9 9 14 8 6 10 10 4 10 -6 0 -24 -10 -39 -22 -22 -17 -31 -19 -46 -10 -16
10 -19 9 -19 -4 0 -14 -3 -14 -15 -4 -8 7 -15 9 -15 5 0 -3 -19 10 -42 29 -44
38 -118 66 -176 66 -19 0 -61 -7 -93 -15 -56 -15 -59 -15 -78 4 -11 11 -35 28
-53 37 l-33 17 33 -33 c17 -19 32 -38 32 -42 0 -5 -15 2 -32 15 -56 41 -61 42
-53 16 7 -20 6 -22 -7 -11 -21 17 -48 -15 -55 -67 -7 -54 -21 -53 -17 1 3 51
21 86 48 94 17 6 11 11 -36 35 l-56 28 -56 -19 c-51 -17 -98 -39 -86 -40 3 0
23 7 45 14 35 13 44 12 89 -6 28 -10 54 -22 58 -24 14 -9 -14 -29 -60 -44 -24
-7 -47 -21 -52 -29 -5 -9 -10 -11 -10 -4 0 6 -9 9 -19 6 -19 -5 -19 -6 -3 -40
15 -32 78 -73 111 -73 17 0 13 -15 -9 -35 -11 -10 -20 -24 -20 -32 0 -7 -5
-13 -11 -13 -5 0 -8 4 -4 9 3 5 1 12 -4 15 -15 10 -24 -13 -11 -29 9 -11 7
-16 -9 -24 -37 -21 -47 -14 -43 30 3 22 0 45 -4 49 -8 7 -385 -28 -481 -45
-32 -6 -32 -7 -18 -29 31 -47 11 -58 -125 -70 -57 -5 320 3 415 9 39 2 62 2
53 -1 -10 -3 -18 -9 -18 -13 0 -4 -16 -5 -35 -3 -22 3 -35 0 -35 -7 0 -7 -5
-9 -10 -6 -6 3 -13 -1 -16 -10 -5 -13 -9 -14 -15 -4 -5 9 -11 10 -21 2 -7 -7
-36 -13 -63 -15 -28 -2 -56 -8 -64 -12 -9 -6 -12 -5 -8 1 4 7 -8 8 -36 2 -26
-4 -47 -3 -54 3 -9 7 -13 7 -13 -2 0 -7 -6 -10 -14 -7 -7 3 -19 0 -26 -6 -10
-9 -11 -9 -6 1 5 9 -5 12 -37 12 -24 0 -47 -3 -51 -7 -9 -10 -26 -12 -151 -18
-83 -5 -120 -2 -152 9 -22 8 -44 12 -47 9 -3 -3 -12 -1 -19 6 -8 6 -22 8 -31
5 -11 -4 -16 -2 -14 6 2 7 -3 15 -11 18 -8 3 -11 0 -7 -7 10 -16 -22 -2 -70
30 -23 16 -44 26 -48 24 -3 -3 -4 -2 -1 2 3 3 -11 26 -31 50 -62 75 -65 151
-10 211 l21 24 -25 -6 c-46 -11 -99 -11 -102 -1 -1 6 33 15 75 21 42 5 84 17
94 26 10 8 27 18 38 22 18 6 17 5 -3 -17 -40 -43 -10 -37 64 11 39 26 115 72
168 102 61 34 103 65 112 81 7 15 32 34 56 45 117 49 155 56 144 28 -5 -14 -4
-15 8 -5 17 14 36 7 36 -14 0 -19 28 -26 116 -30 67 -3 74 -2 62 12 -11 14
-10 15 17 9 37 -9 56 -9 123 -1 42 5 51 9 42 20 -6 7 -32 18 -57 25 -26 6 -62
24 -80 40 -19 17 -39 27 -48 24 -8 -4 -15 -2 -15 4 0 9 181 42 230 42 12 0 19
4 16 9 -3 4 5 6 17 4 12 -2 99 7 194 21 154 21 176 23 213 10 39 -14 42 -13
93 20 28 18 119 75 200 126 l149 92 141 -17 c198 -24 377 -58 377 -73 0 -9
-53 -77 -67 -85 -7 -4 -19 -22 -28 -40 -17 -37 -55 -80 -103 -120 -24 -19 -29
-27 -16 -27 21 0 164 148 170 176 1 6 27 46 58 89 31 43 53 82 49 85 -12 11
-88 27 -193 41 l-94 12 49 19 50 18 -82 -5 c-83 -5 -110 3 -70 23 27 13 107
21 107 10 0 -5 5 -8 10 -8 6 0 10 15 11 33 0 29 1 30 9 10 5 -13 17 -23 25
-23z m-4869 0 c8 0 13 4 10 9 -3 5 1 11 9 14 9 4 12 1 8 -9 -3 -7 0 -14 6 -14
6 0 11 6 11 13 0 9 2 9 9 -1 6 -10 45 -14 143 -16 74 -2 139 -5 144 -8 5 -4
52 -11 104 -17 52 -7 113 -16 135 -22 109 -28 175 -51 170 -59 -3 -4 5 -6 17
-3 14 3 18 1 11 -4 -7 -5 7 -9 34 -10 25 -1 49 -5 52 -10 10 -13 104 -45 143
-48 20 -1 50 -12 67 -25 20 -14 56 -25 99 -30 105 -14 142 -33 142 -77 0 -17
6 -23 23 -24 16 -1 18 -2 5 -6 -12 -3 -18 -14 -18 -32 0 -34 -47 -81 -56 -56
-8 20 -56 45 -87 45 -39 0 -120 -47 -146 -84 -13 -20 -34 -68 -46 -108 -13
-40 -24 -65 -24 -55 -1 22 -21 23 -21 0 0 -15 -1 -15 -18 0 -20 19 -37 23 -27
7 3 -5 1 -10 -4 -10 -14 0 -14 17 0 25 6 4 8 26 4 58 -8 61 -14 74 -26 56 -6
-10 -9 -7 -10 11 -1 23 -2 23 -9 -5 -6 -24 -8 -26 -9 -7 -1 31 -16 28 -19 -4
-1 -15 -6 -32 -12 -39 -5 -6 -8 -14 -5 -17 3 -2 -2 -5 -10 -5 -19 0 -19 2 1
21 11 12 14 25 9 47 -8 37 -25 21 -25 -23 0 -16 -4 -28 -10 -28 -5 0 -7 8 -4
18 5 14 4 15 -5 2 -10 -13 -12 -13 -21 0 -8 12 -10 10 -11 -10 0 -23 -1 -23
-9 -5 -6 13 -9 15 -9 5 -1 -13 -2 -13 -12 0 -8 12 -9 10 -4 -7 4 -13 2 -23 -4
-23 -5 0 -12 8 -14 18 -4 16 -5 16 -6 -1 0 -10 6 -20 14 -23 8 -4 15 -10 15
-15 0 -22 -40 18 -41 41 l-2 25 -4 -25 c-6 -31 -19 -45 -27 -31 -4 6 -2 11 3
11 6 0 11 5 11 12 0 9 -3 9 -11 1 -6 -6 -19 -9 -28 -6 -13 5 -13 2 3 -15 11
-12 26 -22 34 -22 10 0 13 -11 11 -44 -3 -32 0 -43 9 -42 8 2 17 8 21 15 5 7
14 13 22 15 8 1 23 5 34 9 11 3 31 8 45 11 14 3 35 8 48 12 36 10 25 -4 -18
-25 -22 -10 -48 -17 -59 -14 -10 3 -22 -1 -27 -8 -5 -9 -2 -11 12 -6 14 5 12
2 -6 -13 -28 -22 -40 -25 -40 -10 0 6 -4 10 -10 10 -5 0 -7 -8 -4 -17 5 -16 4
-16 -8 -3 -13 15 -48 16 -48 1 0 -3 -11 -8 -26 -9 -14 -1 -33 -6 -42 -11 -29
-16 -151 -43 -162 -36 -5 3 -10 1 -10 -4 0 -6 -7 -11 -16 -11 -8 0 -12 5 -8
11 10 16 -38 0 -52 -17 -9 -11 -13 2 -18 58 -10 106 -32 167 -59 166 -30 0
-116 -16 -219 -39 l-87 -20 15 -47 c7 -26 13 -81 13 -122 -1 -41 -3 -66 -6
-55 -6 25 -23 44 -23 26 0 -7 -6 -11 -14 -8 -8 3 -16 2 -18 -2 -4 -11 -140
-53 -147 -45 -3 3 1 9 9 14 8 6 10 10 4 10 -6 0 -24 -10 -39 -22 -23 -18 -30
-19 -48 -9 -17 11 -19 11 -14 -3 7 -19 -4 -21 -21 -4 -7 7 -12 9 -12 5 0 -4
-12 4 -27 18 -69 64 -167 86 -272 62 l-64 -15 -44 34 c-58 45 -73 43 -28 -3
45 -47 46 -64 0 -24 -37 33 -68 41 -59 17 4 -10 0 -13 -13 -10 -32 9 -48 -23
-47 -90 1 -34 -1 -51 -3 -38 -2 12 -8 22 -12 22 -4 0 -4 24 0 53 6 37 15 58
33 72 l25 20 -52 28 -52 27 -50 -20 c-43 -17 -46 -19 -20 -19 28 1 85 -17 112
-34 17 -11 5 -37 -17 -37 -9 0 -31 -7 -49 -16 -31 -15 -52 -22 -79 -23 -9 -1
-6 -13 9 -39 21 -36 42 -51 97 -67 27 -8 29 -31 2 -45 -11 -6 -20 -18 -20 -28
-1 -16 -1 -16 -11 1 -6 9 -14 15 -19 12 -6 -4 -5 -14 2 -25 14 -23 12 -26 -25
-35 -27 -7 -27 -7 -27 45 l0 52 -37 -6 c-21 -3 -126 -15 -233 -26 -107 -12
-205 -24 -218 -27 -21 -5 -22 -7 -7 -29 30 -46 11 -56 -125 -68 -57 -5 311 3
405 9 39 2 62 2 53 -1 -10 -3 -18 -9 -18 -13 0 -4 -15 -6 -32 -4 -25 3 -30 2
-18 -6 12 -8 8 -11 -20 -12 -19 -1 -41 -1 -47 0 -7 1 -13 -2 -13 -7 0 -5 -6
-9 -12 -9 -7 0 -44 -4 -83 -8 -38 -4 -90 -9 -115 -9 -25 -1 -51 -5 -59 -10
-10 -7 -12 -6 -6 4 6 9 -4 11 -41 6 -216 -25 -280 -29 -328 -17 -28 6 -58 12
-66 13 -8 0 -20 5 -26 10 -6 4 -19 6 -28 2 -11 -4 -16 -1 -16 10 0 9 -5 16
-11 16 -5 0 -7 -4 -4 -10 9 -15 -25 0 -71 31 -23 16 -44 25 -48 22 -3 -4 -6 0
-6 8 0 8 -14 30 -30 49 -57 66 -60 150 -6 208 l21 24 -25 -6 c-46 -11 -99 -11
-102 -1 -2 6 32 15 74 21 43 6 86 17 95 26 10 8 27 18 38 22 18 6 17 5 -3 -17
-43 -45 -8 -35 80 22 47 32 118 74 157 95 38 20 83 52 98 71 29 35 113 80 173
91 28 6 32 5 27 -9 -7 -18 8 -24 18 -7 10 17 25 11 35 -14 10 -27 48 -40 82
-27 13 4 32 5 43 0 11 -4 31 -8 44 -8 21 -1 22 1 10 16 -13 14 -11 16 11 11
14 -3 30 -7 35 -9 20 -6 145 13 140 21 -3 5 -30 17 -59 26 -29 9 -68 29 -85
45 -18 15 -38 26 -46 23 -7 -3 -16 -1 -19 4 -5 9 38 17 196 38 26 4 46 9 44
13 -2 3 17 6 42 6 26 0 72 4 102 8 30 5 96 14 147 22 78 11 97 11 132 -1 l41
-14 201 126 201 126 141 -17 c141 -17 253 -36 334 -57 38 -9 41 -13 32 -30 -6
-11 -26 -37 -45 -58 -19 -20 -34 -42 -34 -47 0 -6 -30 -43 -68 -82 -37 -39
-61 -71 -53 -71 7 0 30 17 50 38 66 71 114 127 116 137 2 6 26 43 54 84 28 41
51 80 51 86 0 13 -65 29 -195 47 l-89 12 49 18 50 18 -82 -5 c-83 -5 -110 3
-70 23 27 13 107 21 107 10 0 -5 5 -8 10 -8 6 0 10 12 10 28 1 23 2 24 11 10
5 -10 17 -18 25 -18z m9740 0 c8 0 13 4 10 9 -3 5 1 11 9 14 9 4 12 1 8 -9 -3
-7 0 -14 6 -14 6 0 11 6 11 13 0 9 2 9 9 -1 6 -10 45 -14 143 -16 74 -2 139
-5 144 -8 5 -4 52 -11 104 -17 52 -7 113 -16 135 -22 109 -28 175 -51 170 -59
-3 -4 5 -6 17 -3 14 3 18 1 11 -4 -7 -5 7 -9 34 -10 25 -1 49 -5 52 -10 10
-13 104 -45 143 -48 20 -1 50 -12 67 -25 20 -14 56 -25 99 -30 105 -14 142
-33 142 -77 0 -17 6 -23 23 -24 16 -1 18 -2 5 -6 -12 -3 -18 -14 -18 -32 0
-34 -47 -81 -56 -56 -8 20 -56 45 -87 45 -39 0 -120 -47 -146 -84 -13 -20 -34
-68 -46 -108 -13 -40 -24 -65 -24 -55 -1 22 -21 23 -21 0 0 -15 -1 -15 -18 0
-20 19 -37 23 -27 7 3 -5 1 -10 -4 -10 -14 0 -14 17 0 25 6 4 8 26 4 58 -8 61
-14 74 -26 56 -6 -10 -9 -7 -10 11 -1 23 -2 23 -9 -5 -6 -24 -8 -26 -9 -7 -1
31 -16 28 -19 -4 -1 -15 -6 -32 -12 -39 -5 -6 -8 -14 -5 -17 3 -2 -2 -5 -10
-5 -19 0 -19 2 1 21 11 12 14 25 9 47 -8 37 -25 21 -25 -23 0 -16 -4 -28 -10
-28 -5 0 -7 8 -4 18 5 14 4 15 -5 2 -10 -13 -12 -13 -21 0 -8 12 -10 10 -11
-10 0 -23 -1 -23 -9 -5 -6 13 -9 15 -9 5 -1 -13 -2 -13 -12 0 -8 12 -9 10 -4
-7 4 -13 2 -23 -4 -23 -5 0 -12 8 -14 18 -4 16 -5 16 -6 -1 0 -10 6 -20 14
-23 8 -4 15 -10 15 -15 0 -22 -40 18 -41 41 l-2 25 -4 -25 c-6 -31 -19 -45
-27 -31 -4 6 -2 11 3 11 6 0 11 5 11 12 0 9 -3 9 -11 1 -6 -6 -19 -9 -28 -6
-13 5 -13 2 3 -15 11 -12 26 -22 34 -22 10 0 13 -11 11 -44 -3 -32 0 -43 9
-42 8 2 17 8 21 15 5 7 14 13 22 15 8 1 23 5 34 9 11 3 31 8 45 11 14 3 35 8
48 12 36 10 25 -4 -18 -25 -22 -10 -48 -17 -59 -14 -10 3 -22 -1 -27 -8 -5 -9
-2 -11 12 -6 14 5 12 2 -6 -13 -28 -22 -40 -25 -40 -10 0 6 -4 10 -10 10 -5 0
-7 -8 -4 -17 5 -16 4 -16 -8 -3 -13 15 -48 16 -48 1 0 -3 -11 -8 -26 -9 -14
-1 -33 -6 -42 -11 -29 -16 -151 -43 -162 -36 -5 3 -10 1 -10 -4 0 -6 -7 -11
-16 -11 -8 0 -12 5 -8 11 10 16 -38 0 -52 -17 -9 -11 -13 2 -18 58 -10 106
-32 167 -59 166 -30 0 -116 -16 -219 -39 l-87 -20 15 -47 c7 -26 13 -81 13
-122 -1 -41 -3 -66 -6 -55 -6 25 -23 44 -23 26 0 -7 -6 -11 -14 -8 -8 3 -16 2
-18 -2 -4 -11 -140 -53 -147 -45 -3 3 1 9 9 14 8 6 10 10 4 10 -6 0 -24 -10
-39 -22 -23 -18 -30 -19 -48 -9 -17 11 -19 11 -14 -3 7 -19 -4 -21 -21 -4 -7
7 -12 9 -12 5 0 -4 -12 4 -27 18 -69 64 -167 86 -272 62 l-64 -15 -44 34 c-58
45 -73 43 -28 -3 45 -47 46 -64 0 -24 -37 33 -68 41 -59 17 4 -10 0 -13 -13
-10 -32 9 -48 -23 -47 -90 1 -34 -1 -51 -3 -38 -2 12 -8 22 -12 22 -4 0 -4 24
0 53 6 37 15 58 33 72 l25 20 -52 28 -52 27 -50 -20 c-43 -17 -46 -19 -20 -19
28 1 85 -17 112 -34 17 -11 5 -37 -17 -37 -9 0 -31 -7 -49 -16 -31 -15 -52
-22 -79 -23 -9 -1 -6 -13 9 -39 21 -36 42 -51 97 -67 27 -8 29 -31 2 -45 -11
-6 -20 -18 -20 -28 -1 -16 -1 -16 -11 1 -6 9 -14 15 -19 12 -6 -4 -5 -14 2
-25 14 -23 12 -26 -25 -35 -27 -7 -27 -7 -27 45 l0 52 -37 -6 c-21 -3 -126
-15 -233 -26 -107 -12 -205 -24 -218 -27 -21 -5 -22 -7 -7 -29 30 -46 11 -56
-125 -68 -57 -5 311 3 405 9 39 2 62 2 53 -1 -10 -3 -18 -9 -18 -13 0 -4 -15
-6 -32 -4 -25 3 -30 2 -18 -6 12 -8 8 -11 -20 -12 -19 -1 -41 -1 -47 0 -7 1
-13 -2 -13 -7 0 -5 -6 -9 -12 -9 -7 0 -44 -4 -83 -8 -38 -4 -90 -9 -115 -9
-25 -1 -51 -5 -59 -10 -10 -7 -12 -6 -6 4 6 9 -4 11 -41 6 -216 -25 -280 -29
-328 -17 -28 6 -58 12 -66 13 -8 0 -20 5 -26 10 -6 4 -19 6 -28 2 -11 -4 -16
-1 -16 10 0 9 -5 16 -11 16 -5 0 -7 -4 -4 -10 9 -15 -25 0 -71 31 -23 16 -44
25 -48 22 -3 -4 -6 0 -6 8 0 8 -14 30 -30 49 -57 66 -60 150 -6 208 l21 24
-25 -6 c-46 -11 -99 -11 -102 -1 -2 6 32 15 74 21 43 6 86 17 95 26 10 8 27
18 38 22 18 6 17 5 -3 -17 -43 -45 -8 -35 80 22 47 32 118 74 157 95 38 20 83
52 98 71 29 35 113 80 173 91 28 6 32 5 27 -9 -7 -18 8 -24 18 -7 10 17 25 11
35 -14 10 -27 48 -40 82 -27 13 4 32 5 43 0 11 -4 31 -8 44 -8 21 -1 22 1 10
16 -13 14 -11 16 11 11 14 -3 30 -7 35 -9 20 -6 145 13 140 21 -3 5 -30 17
-59 26 -29 9 -68 29 -85 45 -18 15 -38 26 -46 23 -7 -3 -16 -1 -19 4 -5 9 38
17 196 38 26 4 46 9 44 13 -2 3 17 6 42 6 26 0 72 4 102 8 30 5 96 14 147 22
78 11 97 11 132 -1 l41 -14 201 126 201 126 141 -17 c141 -17 253 -36 334 -57
38 -9 41 -13 32 -30 -6 -11 -26 -37 -45 -58 -19 -20 -34 -42 -34 -47 0 -6 -30
-43 -68 -82 -37 -39 -61 -71 -53 -71 7 0 30 17 50 38 66 71 114 127 116 137 2
6 26 43 54 84 28 41 51 80 51 86 0 13 -65 29 -195 47 l-89 12 49 18 50 18 -82
-5 c-83 -5 -110 3 -70 23 27 13 107 21 107 10 0 -5 5 -8 10 -8 6 0 10 12 10
28 1 23 2 24 11 10 5 -10 17 -18 25 -18z m-9986 -40 c-17 -17 -32 -19 -117
-18 -54 0 -188 -5 -298 -11 -110 -6 -299 -16 -420 -21 -121 -6 -348 -17 -505
-25 -157 -8 -341 -17 -410 -20 -69 -3 -199 -10 -290 -14 -91 -5 -168 -7 -172
-4 -5 2 -8 13 -8 24 0 17 7 19 58 19 54 0 223 7 752 30 124 5 333 14 465 20
465 19 552 22 710 30 278 12 258 13 235 -10z m4870 0 c-17 -17 -32 -20 -112
-18 -51 1 -235 -6 -408 -15 -614 -33 -1342 -68 -1635 -79 -65 -3 -70 -1 -73
18 -3 21 1 21 185 28 103 4 334 13 513 21 179 8 503 22 720 30 217 9 472 20
565 24 289 14 268 14 245 -9z m4870 0 c-17 -17 -32 -19 -117 -18 -54 0 -188
-5 -298 -11 -110 -6 -299 -16 -420 -21 -121 -6 -348 -17 -505 -25 -157 -8
-341 -17 -410 -20 -69 -3 -199 -10 -290 -14 -91 -5 -168 -7 -172 -4 -5 2 -8
13 -8 24 0 17 7 19 58 19 54 0 223 7 752 30 124 5 333 14 465 20 465 19 552
22 710 30 278 12 258 13 235 -10z m-11260 -160 c18 -6 8 -8 -39 -9 -64 -1 -64
-1 -43 -20 22 -18 20 -18 -106 -25 -70 -4 -176 -11 -237 -16 -60 -5 -145 -12
-187 -14 l-78 -5 0 28 c0 27 2 29 58 35 84 9 474 16 427 8 l-40 -7 30 -7 c38
-8 87 0 100 17 6 7 24 15 40 18 43 6 47 6 75 -3z m9740 0 c18 -6 8 -8 -39 -9
-64 -1 -64 -1 -43 -20 22 -18 20 -18 -106 -25 -70 -4 -176 -11 -237 -16 -60
-5 -145 -12 -187 -14 l-78 -5 0 28 c0 27 2 29 58 35 84 9 474 16 427 8 l-40
-7 30 -7 c38 -8 87 0 100 17 6 7 24 15 40 18 43 6 47 6 75 -3z m-5107 -19
c-34 -3 -65 -9 -68 -13 -9 -8 136 -2 190 8 26 4 36 3 31 -4 -3 -6 0 -12 6 -15
7 -2 -45 -7 -117 -11 -71 -4 -179 -11 -240 -16 -60 -5 -145 -12 -187 -14 l-78
-5 0 29 c0 24 5 30 23 31 266 16 577 23 440 10z m16218 -294 c24 -13 58 -43
74 -66 l30 -43 0 -448 0 -448 -30 -43 c-16 -23 -50 -53 -74 -66 l-44 -23
-2987 0 -2987 0 -44 23 c-24 13 -57 43 -74 66 l-30 43 0 448 0 448 30 43 c17
23 50 53 74 66 l44 23 2987 0 2987 0 44 -23z m-18811 -232 c0 -61 -3 -85 -12
-85 -9 0 -8 -4 2 -11 12 -8 10 -9 -7 -4 -19 5 -22 3 -17 -12 5 -15 4 -15 -5
-3 -9 12 -14 13 -31 3 -39 -25 -45 -17 -43 52 2 36 -2 67 -8 70 -19 12 -55 -4
-67 -30 -18 -39 -26 -103 -15 -117 6 -8 7 -22 2 -33 -5 -14 -8 -15 -9 -5 -1 8
-3 24 -6 35 -6 32 -12 77 -15 115 -2 19 -5 -1 -8 -45 -5 -59 -9 -79 -19 -77
-8 1 -11 -2 -7 -8 3 -5 13 -10 21 -10 27 0 16 -39 -13 -46 -16 -4 -31 -11 -34
-16 -3 -6 -9 48 -11 119 -3 70 -4 129 -3 131 3 3 127 32 215 51 94 19 90 22
90 -74z m4870 1 c0 -75 -2 -85 -19 -91 -13 -4 -18 -12 -15 -23 5 -14 4 -14 -4
-2 -9 12 -14 12 -36 0 -14 -7 -28 -11 -31 -9 -2 3 -6 34 -7 70 -3 57 -5 64
-24 67 -14 2 -29 -6 -42 -23 -25 -31 -39 -109 -24 -128 6 -7 7 -18 2 -27 -6
-9 -10 1 -14 31 -3 24 -10 71 -15 104 l-9 60 -1 -94 c-1 -80 -3 -92 -17 -87
-8 3 -12 2 -9 -4 3 -6 13 -10 21 -10 27 0 16 -39 -13 -46 -16 -4 -31 -11 -34
-17 -4 -5 -9 49 -11 119 -3 71 -3 131 -2 133 5 6 255 59 282 60 21 1 22 -2 22
-83z m4870 -1 c0 -61 -3 -85 -12 -85 -9 0 -8 -4 2 -11 12 -8 10 -9 -7 -4 -19
5 -22 3 -17 -12 5 -15 4 -15 -5 -3 -9 12 -14 13 -31 3 -39 -25 -45 -17 -43 52
2 36 -2 67 -8 70 -19 12 -55 -4 -67 -30 -18 -39 -26 -103 -15 -117 6 -8 7 -22
2 -33 -5 -14 -8 -15 -9 -5 -1 8 -3 24 -6 35 -6 32 -12 77 -15 115 -2 19 -5 -1
-8 -45 -5 -59 -9 -79 -19 -77 -8 1 -11 -2 -7 -8 3 -5 13 -10 21 -10 27 0 16
-39 -13 -46 -16 -4 -31 -11 -34 -16 -3 -6 -9 48 -11 119 -3 70 -4 129 -3 131
3 3 127 32 215 51 94 19 90 22 90 -74z m-11482 -701 c-2 -19 -1 -35 2 -37 3
-2 -1 -2 -8 -1 -7 2 -24 -1 -38 -6 -14 -6 -47 -12 -72 -14 -26 -2 -55 -7 -64
-11 -9 -4 -65 -14 -123 -24 l-106 -17 -41 39 c-37 36 -43 38 -81 31 -37 -6
-40 -5 -29 9 7 8 32 19 55 22 23 4 56 14 72 23 17 9 38 15 48 13 10 -1 29 5
43 14 19 12 29 13 45 4 15 -8 24 -8 32 0 7 7 14 7 24 0 9 -8 21 -8 41 0 30 12
82 6 82 -10 0 -5 5 -9 11 -9 5 0 8 4 5 8 -6 10 52 8 77 -3 13 -6 17 -2 18 16
1 19 2 20 6 5 3 -10 3 -33 1 -52z m4868 25 c-3 -22 -8 -44 -11 -49 -3 -4 1
-11 7 -14 9 -4 8 -5 -2 -4 -8 1 -29 -2 -47 -6 -17 -4 -51 -9 -76 -11 -25 -2
-51 -6 -57 -10 -6 -3 -62 -14 -125 -24 -94 -15 -115 -15 -115 -5 0 8 -18 25
-40 39 -33 21 -48 24 -78 19 -33 -6 -36 -5 -22 9 8 9 32 18 53 21 40 5 97 27
97 37 0 3 11 4 25 1 16 -3 33 2 45 13 15 13 22 14 40 5 15 -8 25 -9 33 -1 6 6
16 7 27 1 11 -6 28 -5 47 2 23 9 36 8 60 -4 19 -9 37 -12 51 -7 12 5 34 4 48
-1 22 -9 27 -7 31 10 9 35 15 22 9 -21z m4872 -25 c-2 -19 -1 -35 2 -37 3 -2
-1 -2 -8 -1 -7 2 -24 -1 -38 -6 -14 -6 -47 -12 -72 -14 -26 -2 -55 -7 -64 -11
-9 -4 -65 -14 -123 -24 l-106 -17 -41 39 c-37 36 -43 38 -81 31 -37 -6 -40 -5
-29 9 7 8 32 19 55 22 23 4 56 14 72 23 17 9 38 15 48 13 10 -1 29 5 43 14 19
12 29 13 45 4 15 -8 24 -8 32 0 7 7 14 7 24 0 9 -8 21 -8 41 0 30 12 82 6 82
-10 0 -5 5 -9 11 -9 5 0 8 4 5 8 -6 10 52 8 77 -3 13 -6 17 -2 18 16 1 19 2
20 6 5 3 -10 3 -33 1 -52z"/>
<path d="M16495 12171 c-66 -30 -156 -126 -197 -212 -80 -167 -114 -328 -121
-579 -2 -72 1 -90 19 -120 34 -55 38 -102 13 -129 -24 -26 -21 -72 11 -161 49
-134 76 -134 269 -2 100 70 143 159 195 402 l23 105 6 -82 c9 -99 -4 -192 -45
-331 -16 -57 -28 -106 -25 -108 12 -13 48 20 76 68 37 67 73 176 97 298 28
145 26 424 -4 544 -40 162 -107 271 -187 307 -50 23 -80 23 -130 0z m-185
-538 c0 -4 -9 -26 -21 -49 -21 -45 -36 -164 -25 -207 8 -35 35 -42 68 -17 45
33 76 25 111 -31 9 -15 28 -29 46 -32 29 -6 31 -9 31 -52 0 -54 -33 -95 -75
-95 -20 0 -25 5 -25 26 0 36 -17 64 -40 64 -27 0 -30 -10 -14 -55 21 -60 19
-65 -25 -65 -31 0 -41 4 -46 20 -3 11 -13 26 -21 34 -20 21 -53 330 -40 381
10 40 76 107 76 78z"/>
<path d="M8526 11497 c-17 -19 -46 -55 -65 -82 l-34 -48 54 7 c141 19 139 19
139 2 0 -9 -13 -30 -29 -48 -29 -33 -30 -33 -112 -31 -45 1 -90 -2 -100 -8
-31 -16 -22 -37 20 -50 47 -14 163 8 226 44 41 23 105 98 105 123 0 23 -48 35
-112 28 -63 -7 -70 -1 -40 35 15 18 32 22 125 28 80 4 107 9 107 20 0 10 -27
13 -126 13 l-127 0 -31 -33z"/>
<path d="M13160 11052 l-65 -28 -3 -104 c-4 -157 7 -180 60 -120 44 50 75 15
62 -69 -8 -52 -37 -80 -64 -63 -37 23 -72 -16 -51 -57 26 -47 97 -27 135 39
23 40 36 125 28 188 -7 58 -39 83 -77 58 -39 -26 -46 -20 -43 30 3 46 3 46 58
68 49 20 55 26 58 54 4 41 -10 41 -98 4z"/>
<path d="M21490 10507 c-33 -16 -60 -72 -60 -124 l0 -43 108 0 c120 0 146 10
157 59 8 36 -16 95 -43 110 -28 15 -131 14 -162 -2z"/>
<path d="M22680 10511 c-14 -3 -42 -13 -62 -21 l-38 -14 0 -161 0 -162 42 -19
c26 -12 65 -19 101 -19 53 0 61 3 87 32 55 61 65 221 18 304 -31 56 -82 77
-148 60z"/>
<path d="M23235 10513 c-61 -16 -85 -73 -85 -200 1 -166 38 -211 166 -201 95
8 124 56 124 203 0 150 -28 194 -127 200 -32 2 -67 1 -78 -2z"/>
<path d="M25893 10510 c-29 -12 -53 -59 -60 -121 l-6 -51 121 4 c82 2 125 7
134 16 7 7 13 35 13 63 0 43 -4 54 -28 75 -23 20 -38 24 -90 23 -34 0 -72 -4
-84 -9z"/>
<path d="M26540 10303 c-139 -6 -170 -25 -170 -101 0 -86 42 -111 144 -88 120
28 116 24 116 116 0 58 -3 79 -12 78 -7 -1 -42 -3 -78 -5z"/>
<path d="M10920 10118 c-141 -19 -323 -137 -435 -279 -185 -237 -285 -533
-285 -843 0 -207 86 -503 185 -638 65 -89 244 -160 290 -115 9 9 35 22 58 28
23 6 60 21 82 34 29 17 61 24 118 27 87 6 117 23 117 69 0 16 7 32 16 37 14 8
10 12 -22 22 -21 7 -52 20 -69 30 -16 10 -49 20 -73 24 -31 5 -53 17 -78 41
-44 45 -78 46 -99 5 -9 -16 -20 -30 -24 -30 -5 0 -32 11 -59 25 -28 14 -65 25
-83 25 -56 0 -131 34 -156 70 -44 63 -56 132 -49 280 4 74 10 152 14 173 l7
39 27 -21 c14 -12 30 -21 34 -21 4 0 22 -11 40 -25 39 -30 60 -25 68 17 8 42
-13 101 -34 92 -8 -4 -23 -6 -32 -5 -49 4 -55 6 -51 19 3 7 -3 19 -13 27 -23
17 -9 48 23 50 40 3 71 33 88 87 21 64 76 124 125 138 55 15 60 13 58 -22 l-3
-33 60 -5 60 -5 -45 -13 c-60 -18 -120 -58 -120 -81 0 -10 -10 -29 -21 -42
-63 -71 -82 -201 -39 -277 38 -67 88 -82 154 -47 29 15 63 25 89 25 24 0 56 8
75 20 37 23 38 22 46 -58 7 -75 52 -135 134 -180 49 -27 62 -39 62 -57 0 -13
-5 -27 -10 -30 -33 -21 -60 -165 -44 -237 14 -68 96 -10 191 135 55 84 94 169
138 300 21 63 36 95 40 85 4 -10 14 -14 25 -11 31 8 40 -31 24 -109 -18 -86
-66 -230 -110 -325 -19 -42 -34 -77 -34 -80 0 -2 9 1 20 7 15 8 20 8 20 -1 0
-23 46 30 93 108 56 94 118 277 142 422 25 152 17 399 -18 531 -72 270 -205
457 -389 549 -55 27 -106 44 -153 51 -79 11 -86 11 -175 -2z m404 -903 c31
-45 31 -87 -1 -134 -10 -14 -22 -39 -28 -56 -5 -16 -17 -30 -25 -30 -13 0 -14
21 -11 140 2 82 8 146 14 154 9 11 13 9 18 -10 3 -13 18 -42 33 -64z"/>
<path d="M23265 9172 c-22 -4 -63 -19 -90 -32 -62 -31 -107 -102 -125 -193
-19 -101 -24 -310 -10 -421 30 -243 104 -310 340 -309 211 1 279 50 326 233
26 104 26 404 0 499 -32 117 -73 173 -151 206 -45 18 -224 29 -290 17z"/>
<path d="M26060 9174 c-141 -25 -197 -79 -231 -224 -27 -110 -26 -406 0 -509
40 -151 101 -205 248 -222 89 -10 210 1 264 25 48 20 100 82 122 144 10 27 24
108 32 181 12 113 12 150 -1 267 -27 261 -91 331 -308 339 -56 2 -112 2 -126
-1z"/>
<path d="M26166 7549 l-26 -20 0 -155 c0 -190 2 -194 108 -194 107 0 106 -1
110 184 3 155 3 156 -22 181 -21 21 -34 25 -84 25 -45 0 -66 -5 -86 -21z"/>
<path d="M26606 7549 l-26 -20 0 -155 c0 -190 2 -194 108 -194 107 0 106 -1
110 184 3 155 3 156 -22 181 -21 21 -34 25 -84 25 -45 0 -66 -5 -86 -21z"/>
<path d="M25215 7428 c-29 -16 -35 -28 -35 -72 l0 -38 76 4 c79 4 94 12 94 56
0 51 -80 81 -135 50z"/>
<path d="M7167 6192 c-13 -14 -17 -38 -17 -95 0 -71 2 -78 25 -93 17 -11 35
-14 59 -10 29 6 37 13 47 43 16 48 6 143 -17 160 -26 19 -78 16 -97 -5z"/>
<path d="M7917 6195 c-16 -15 -31 -95 -24 -123 3 -9 8 -29 11 -44 8 -36 63
-49 101 -24 23 15 25 22 25 96 0 58 -4 83 -16 94 -19 20 -78 21 -97 1z"/>
<path d="M9654 6196 c-16 -12 -19 -27 -19 -95 0 -44 5 -85 11 -91 6 -6 27 -13
46 -16 57 -10 78 19 78 104 0 83 -16 112 -64 112 -18 0 -41 -6 -52 -14z"/>
<path d="M19556 4474 c-11 -10 -16 -34 -16 -70 0 -76 11 -94 60 -94 46 0 53
14 52 99 0 41 -5 58 -18 68 -24 18 -59 16 -78 -3z"/>
<path d="M19002 3806 c-46 -16 -97 -69 -110 -114 -8 -27 -12 -162 -12 -432 0
-270 4 -405 12 -432 13 -45 64 -98 110 -114 48 -18 5948 -18 5996 0 46 16 97
69 110 114 17 55 17 809 0 864 -13 45 -64 98 -110 114 -48 18 -5948 18 -5996
0z m531 -281 c33 -96 34 -105 18 -105 -12 0 -23 11 -30 30 -8 26 -15 30 -45
30 -29 0 -36 -4 -45 -30 -9 -27 -41 -43 -41 -21 0 8 31 97 61 179 5 12 17 22
27 22 15 0 26 -22 55 -105z m1197 86 c5 -11 10 -50 10 -86 0 -93 -9 -105 -73
-105 -29 0 -58 5 -65 12 -7 7 -12 43 -12 93 0 50 5 86 12 93 7 7 36 12 65 12
41 0 54 -4 63 -19z m270 -1 c6 -11 11 -48 11 -81 1 -92 -27 -121 -104 -110
-38 5 -28 25 14 29 34 3 59 24 59 49 0 9 -14 13 -43 13 -52 0 -67 13 -67 60 0
48 15 60 72 60 37 0 50 -4 58 -20z m590 1 c5 -11 10 -50 10 -86 0 -93 -9 -105
-73 -105 -29 0 -58 5 -65 12 -7 7 -12 43 -12 93 0 50 5 86 12 93 7 7 36 12 65
12 41 0 54 -4 63 -19z m178 7 c7 -7 12 -43 12 -93 0 -50 -5 -86 -12 -93 -7 -7
-35 -12 -63 -12 -28 0 -56 5 -63 12 -7 7 -12 43 -12 93 0 50 5 86 12 93 16 16
110 16 126 0z m-2062 -63 c18 -24 18 -96 0 -120 -9 -13 -25 -18 -50 -17 -35 1
-36 0 -36 -33 0 -24 -5 -35 -15 -35 -12 0 -15 19 -15 113 l0 114 51 -1 c38 -1
54 -6 65 -21z m2288 9 c11 -11 16 -34 16 -78 l0 -63 -60 -2 c-57 -1 -60 0 -66
26 -10 39 7 58 55 61 33 3 42 7 39 20 -2 12 -15 18 -46 20 -40 3 -50 10 -35
25 13 13 82 7 97 -9z m76 6 c0 -6 10 -5 25 2 18 8 31 8 49 0 18 -8 32 -8 54 0
56 21 82 -11 82 -103 0 -42 -3 -49 -20 -49 -18 0 -20 7 -20 60 0 66 -12 80
-49 60 -17 -9 -21 -20 -21 -65 0 -42 -3 -55 -15 -55 -12 0 -15 13 -15 59 0 65
-6 75 -45 65 -23 -6 -25 -10 -25 -65 0 -46 -3 -59 -15 -59 -12 0 -15 16 -15
80 0 64 3 80 15 80 8 0 15 -4 15 -10z m-2130 -444 c0 -8 -10 -16 -22 -18 -12
-2 -23 -9 -26 -15 -2 -9 11 -13 47 -13 l51 0 0 -80 c0 -64 -3 -80 -15 -80 -12
0 -15 14 -15 65 l0 65 -35 0 -35 0 0 -65 c0 -51 -3 -65 -15 -65 -12 0 -15 14
-15 64 0 42 -4 66 -12 70 -10 5 -10 7 0 12 6 3 12 16 12 28 0 12 5 27 12 34
17 17 68 15 68 -2z m2030 -95 l0 -109 -57 1 c-53 2 -59 5 -71 30 -18 38 -7
104 20 118 11 6 33 8 49 5 28 -5 29 -4 29 29 0 24 5 35 15 35 12 0 15 -19 15
-109z m-2629 83 c17 -21 24 -122 10 -157 -6 -16 -20 -31 -31 -34 -26 -7 -26
-23 0 -23 11 0 20 -7 20 -15 0 -8 -9 -15 -19 -15 -20 0 -51 25 -51 41 0 5 -11
9 -26 9 -19 0 -28 8 -40 35 -23 57 -14 146 19 167 22 14 104 9 118 -8z m2010
-72 c16 -46 31 -92 34 -103 11 -33 -25 -22 -36 11 -9 26 -16 30 -46 30 -29 0
-36 -5 -46 -30 -7 -17 -19 -30 -28 -30 -15 0 -13 13 18 106 31 91 38 105 56
102 16 -2 26 -21 48 -86z m1509 12 l50 -77 0 77 c0 61 3 76 15 76 12 0 15 -18
15 -105 0 -130 -10 -134 -74 -33 l-46 72 0 -72 c0 -65 -2 -72 -20 -72 -19 0
-20 7 -20 105 0 131 11 135 80 29z m1330 -6 l24 -83 24 83 c19 61 29 82 42 82
14 0 19 -13 24 -62 4 -35 9 -82 12 -105 5 -34 3 -43 -9 -43 -17 0 -27 29 -27
83 0 55 -14 45 -34 -24 -22 -80 -41 -77 -69 11 -16 48 -22 59 -24 40 -2 -14
-6 -44 -9 -67 -4 -30 -10 -43 -21 -43 -13 0 -14 9 -9 58 18 151 18 152 35 152
13 0 23 -21 41 -82z m-4535 18 c14 -10 20 -30 23 -78 l4 -64 -61 -2 c-70 -2
-89 15 -71 62 8 22 16 26 50 26 34 0 41 3 38 18 -2 12 -14 18 -41 20 -35 3
-45 11 -30 25 11 12 69 7 88 -7z m606 4 c16 -9 19 -22 19 -79 l0 -69 -34 0
c-19 0 -39 -3 -44 -6 -6 -3 -20 3 -33 13 -20 16 -22 23 -14 47 9 25 16 29 53
32 34 3 43 7 40 20 -2 11 -14 18 -33 20 -17 2 -37 5 -45 8 -13 4 -13 6 0 14
20 13 67 12 91 0z m316 4 c40 -11 52 -115 17 -145 -19 -15 -79 -15 -98 0 -11
9 -16 30 -16 67 0 43 4 56 22 68 24 17 40 19 75 10z m417 -7 c11 -8 20 -31 23
-58 7 -61 -18 -93 -73 -91 -49 2 -64 22 -64 83 0 38 5 51 22 63 27 19 68 21
92 3z m796 -7 c23 -23 28 -97 8 -122 -29 -36 -111 -26 -122 15 -19 73 8 127
64 127 17 0 39 -9 50 -20z m434 7 c11 -8 20 -31 23 -58 7 -61 -18 -93 -73 -91
-49 2 -64 22 -64 83 0 38 5 51 22 63 27 19 68 21 92 3z m162 2 c7 -6 21 -6 38
1 64 24 86 2 86 -86 0 -50 -3 -64 -15 -64 -11 0 -15 13 -15 54 0 59 -13 78
-48 69 -20 -5 -22 -12 -22 -64 0 -46 -3 -59 -15 -59 -11 0 -15 13 -15 54 0 59
-16 82 -50 71 -17 -5 -20 -15 -20 -66 0 -46 -3 -59 -15 -59 -12 0 -15 15 -15
78 l0 77 47 2 c26 1 53 -3 59 -8z m251 5 c40 -11 52 -115 17 -145 -19 -15 -79
-15 -98 0 -11 9 -16 30 -16 67 0 43 4 56 22 68 24 17 40 19 75 10z m434 -4
c16 -9 19 -22 19 -79 l0 -69 -34 0 c-19 0 -39 -3 -44 -6 -6 -3 -20 3 -33 13
-20 16 -22 23 -14 47 9 25 16 29 53 32 34 3 43 7 40 20 -2 11 -14 18 -33 20
-17 2 -37 5 -45 8 -13 4 -13 6 0 14 20 13 67 12 91 0z m369 -10 c23 -23 28
-97 8 -122 -29 -36 -111 -26 -122 15 -19 73 8 127 64 127 17 0 39 -9 50 -20z
m311 10 c16 -9 19 -22 19 -79 l0 -69 -34 0 c-19 0 -39 -3 -44 -6 -6 -3 -20 3
-33 13 -20 16 -22 23 -14 47 9 25 16 29 53 32 34 3 43 7 40 20 -2 11 -14 18
-33 20 -17 2 -37 5 -45 8 -13 4 -13 6 0 14 20 13 67 12 91 0z m241 -7 c21 -19
24 -58 6 -70 -7 -4 -31 -10 -52 -13 -38 -5 -39 -6 -22 -22 10 -10 32 -18 52
-18 41 0 46 -17 7 -22 -78 -9 -103 13 -103 88 0 62 68 97 112 57z m468 -3 c23
-23 28 -97 8 -122 -29 -36 -111 -26 -122 15 -19 73 8 127 64 127 17 0 39 -9
50 -20z m454 4 c11 -11 16 -34 16 -78 l0 -63 -60 -2 c-57 -1 -60 0 -66 26 -10
39 7 58 55 61 33 3 42 7 39 20 -2 12 -15 18 -46 20 -40 3 -50 10 -35 25 13 13
82 7 97 -9z"/>
<path d="M19002 2586 c-46 -16 -97 -69 -110 -114 -8 -27 -12 -162 -12 -432 0
-270 4 -405 12 -432 13 -45 64 -98 110 -114 48 -18 5948 -18 5996 0 46 16 97
69 110 114 17 55 17 809 0 864 -13 45 -64 98 -110 114 -48 18 -5948 18 -5996
0z m472 -253 c23 -75 25 -77 35 -50 6 16 16 49 22 74 11 41 31 64 46 50 3 -3
11 -51 17 -107 12 -93 11 -100 -5 -100 -14 0 -18 13 -25 73 l-7 72 -20 -72
c-27 -98 -48 -100 -73 -6 -15 57 -19 64 -25 43 -4 -14 -7 -44 -8 -67 -1 -36
-4 -43 -22 -43 -15 0 -19 5 -15 18 2 9 8 53 12 97 7 89 9 95 29 95 9 0 24 -29
39 -77z m766 57 c6 -11 11 -48 11 -81 1 -92 -27 -121 -104 -110 -38 5 -28 25
14 29 34 3 59 24 59 49 0 9 -14 13 -43 13 -52 0 -67 13 -67 60 0 48 15 60 72
60 37 0 50 -4 58 -20z m481 3 c9 -10 14 -42 14 -88 0 -90 -11 -105 -74 -105
-72 0 -76 7 -76 105 0 98 4 105 76 105 31 0 51 -5 60 -17z m270 0 c22 -26 19
-146 -5 -172 -24 -26 -106 -31 -106 -6 0 11 11 15 40 15 34 0 42 4 50 26 6 14
10 27 10 30 0 2 -20 4 -44 4 -51 0 -76 19 -76 56 0 49 16 64 69 64 33 0 53 -5
62 -17z m587 5 c7 -7 12 -43 12 -93 0 -50 -5 -86 -12 -93 -7 -7 -36 -12 -65
-12 -64 0 -73 12 -73 105 0 93 9 105 73 105 29 0 58 -5 65 -12z m183 -5 c9
-10 14 -42 14 -88 0 -90 -11 -105 -74 -105 -72 0 -76 7 -76 105 0 98 4 105 76
105 31 0 51 -5 60 -17z m-2027 -49 c11 -11 16 -34 16 -78 l0 -63 -60 -2 c-57
-1 -60 0 -66 26 -10 39 7 58 55 61 33 3 42 7 39 20 -2 12 -15 18 -46 20 -40 3
-50 10 -35 25 13 13 82 7 97 -9z m2251 2 c14 -10 20 -30 23 -78 l4 -64 -61 -2
c-70 -2 -89 15 -71 62 8 22 16 26 50 26 34 0 41 3 38 18 -2 12 -14 18 -41 20
-35 3 -45 11 -30 25 11 12 69 7 88 -7z m161 3 c7 -6 21 -6 38 1 64 24 86 2 86
-86 0 -50 -3 -64 -15 -64 -11 0 -15 13 -15 54 0 59 -13 78 -48 69 -20 -5 -22
-12 -22 -64 0 -46 -3 -59 -15 -59 -11 0 -15 13 -15 54 0 59 -16 82 -50 71 -17
-5 -20 -15 -20 -66 0 -46 -3 -59 -15 -59 -12 0 -15 15 -15 78 l0 77 47 2 c26
1 53 -3 59 -8z m-638 -540 l3 -106 -53 -1 c-29 -1 -59 2 -67 7 -7 5 -16 31
-19 59 -4 42 -1 53 18 72 16 16 30 21 51 18 27 -4 29 -2 29 29 0 27 4 34 18
31 15 -3 17 -18 20 -109z m-2178 82 c15 -29 12 -87 -6 -105 -9 -9 -32 -16 -55
-16 -38 0 -39 -1 -39 -35 0 -24 -5 -35 -15 -35 -12 0 -15 18 -15 105 l0 105
60 0 c48 0 61 -4 70 -19z m1576 -6 c14 -21 15 -30 5 -52 -8 -18 -9 -29 -1 -37
14 -14 13 -69 -2 -84 -7 -7 -38 -12 -70 -12 l-58 0 0 105 0 105 55 0 c47 0 57
-3 71 -25z m874 -20 l0 -45 50 0 50 0 0 45 c0 33 4 45 15 45 12 0 15 -18 15
-105 0 -87 -3 -105 -15 -105 -11 0 -15 12 -15 45 l0 45 -50 0 -50 0 0 -45 c0
-33 -4 -45 -15 -45 -12 0 -15 18 -15 105 0 87 3 105 15 105 11 0 15 -12 15
-45z m940 31 c0 -11 -15 -16 -52 -18 -50 -3 -52 -4 -61 -37 -4 -19 -5 -50 0
-70 8 -33 12 -36 46 -39 35 -3 37 -2 37 27 0 26 -4 31 -25 31 -32 0 -33 18 -1
26 50 12 61 3 64 -57 l3 -56 -64 -2 c-74 -1 -86 7 -94 68 -7 50 3 106 23 126
21 21 124 21 124 1z m167 2 c17 -22 22 -59 12 -86 -13 -34 -26 -42 -71 -42
-37 0 -38 -1 -38 -35 0 -24 -5 -35 -15 -35 -12 0 -15 18 -15 105 l0 105 59 0
c35 0 62 -5 68 -12z m-3305 -55 c14 -12 18 -31 18 -79 l0 -62 -62 1 c-61 2
-63 3 -66 30 -5 38 14 57 54 57 27 0 34 4 34 20 0 17 -7 20 -40 20 -38 0 -49
8 -33 23 13 13 77 7 95 -10z m598 -3 c38 -38 14 -80 -46 -80 -19 0 -34 -4 -34
-8 0 -18 26 -32 57 -32 18 0 33 -4 33 -9 0 -15 -61 -21 -89 -8 -23 11 -26 19
-29 68 -2 42 1 61 13 73 22 22 71 20 95 -4z m368 4 c18 -12 22 -25 22 -68 0
-62 -12 -76 -63 -78 -45 -2 -65 14 -73 57 -15 83 50 134 114 89z m616 0 c11
-11 16 -34 16 -78 l0 -63 -60 -2 c-57 -1 -60 0 -66 26 -10 39 7 58 55 61 33 3
42 7 39 20 -2 12 -15 18 -46 20 -40 3 -50 10 -35 25 13 13 82 7 97 -9z m881 2
c14 -10 20 -30 23 -78 l4 -64 -61 -2 c-70 -2 -89 15 -71 62 8 22 16 26 50 26
34 0 41 3 38 18 -2 12 -14 18 -41 20 -35 3 -45 11 -30 25 11 12 69 7 88 -7z"/>
<path d="M11182 1799 c-62 -10 -99 -28 -128 -61 -12 -12 -73 -101 -137 -197
l-116 -173 57 7 c91 11 547 103 626 126 39 12 115 44 170 71 107 54 143 59 52
7 -32 -17 -56 -33 -54 -34 2 -2 37 5 78 15 41 10 101 22 134 25 32 4 54 10 50
15 -5 4 -38 17 -74 29 -36 11 -59 20 -52 20 18 1 15 25 -6 44 -24 22 -46 22
-39 0 2 -10 6 -24 8 -32 6 -20 -59 -57 -74 -42 -8 8 -7 11 4 12 7 1 3 4 -11 8
-18 5 -24 14 -23 28 2 16 -6 24 -29 32 -17 6 -37 11 -45 11 -18 0 -62 50 -63
71 0 10 -12 19 -31 23 -44 9 -234 5 -297 -5z"/>
<path d="M9540 1249 c-19 -5 -59 -17 -89 -25 l-53 -15 20 -20 c12 -10 34 -19
50 -19 15 0 33 -5 39 -11 6 -6 21 -8 33 -4 18 6 20 9 9 16 -8 5 -11 9 -6 9 4
0 16 -5 26 -12 15 -9 25 -7 54 11 19 12 42 18 51 15 9 -3 23 0 32 7 14 11 9
15 -38 32 -73 25 -88 27 -128 16z"/>
<path d="M6300 1796 c-30 -6 -69 -20 -85 -30 -19 -11 -77 -88 -157 -208 l-127
-190 57 7 c105 12 547 104 633 130 46 15 122 47 168 71 46 24 85 44 88 44 15
0 -16 -24 -59 -46 -27 -14 -48 -27 -46 -29 1 -1 37 5 78 15 41 10 101 21 133
25 31 4 57 10 57 14 0 5 -28 17 -63 27 -57 16 -63 20 -59 41 3 17 -2 25 -22
34 -34 16 -43 6 -22 -25 16 -25 16 -26 -25 -46 -39 -20 -70 -20 -39 0 12 8 10
10 -7 10 -13 0 -23 5 -23 11 0 5 -4 8 -8 5 -5 -3 -9 1 -9 9 0 8 4 12 9 9 13
-8 10 6 -4 19 -7 7 -29 13 -48 15 -35 3 -62 25 -80 68 -5 13 -21 24 -40 28
-52 10 -240 5 -300 -8z"/>
<path d="M4665 1245 c-27 -7 -69 -18 -93 -24 l-43 -12 24 -20 c14 -10 35 -19
47 -19 12 0 30 -5 41 -11 26 -13 62 -3 39 11 -21 13 -6 12 24 -2 21 -9 29 -8
45 6 10 9 35 18 55 20 55 4 67 23 20 31 -22 4 -49 13 -61 21 -26 16 -31 16
-98 -1z"/>
<path d="M16040 1796 c-30 -6 -69 -20 -85 -30 -19 -11 -77 -88 -157 -208
l-127 -190 57 7 c105 12 547 104 633 130 46 15 122 47 168 71 46 24 85 44 88
44 15 0 -16 -24 -59 -46 -27 -14 -48 -27 -46 -29 1 -1 37 5 78 15 41 10 101
21 133 25 31 4 57 10 57 14 0 5 -28 17 -63 27 -57 16 -63 20 -59 41 3 17 -2
25 -22 34 -34 16 -43 6 -22 -25 16 -25 16 -26 -25 -46 -39 -20 -70 -20 -39 0
12 8 10 10 -7 10 -13 0 -23 5 -23 11 0 5 -4 8 -8 5 -5 -3 -9 1 -9 9 0 8 4 12
9 9 13 -8 10 6 -4 19 -7 7 -29 13 -48 15 -35 3 -62 25 -80 68 -5 13 -21 24
-40 28 -52 10 -240 5 -300 -8z"/>
<path d="M14405 1245 c-27 -7 -69 -18 -93 -24 l-43 -12 24 -20 c14 -10 35 -19
47 -19 12 0 30 -5 41 -11 26 -13 62 -3 39 11 -21 13 -6 12 24 -2 21 -9 29 -8
45 6 10 9 35 18 55 20 55 4 67 23 20 31 -22 4 -49 13 -61 21 -26 16 -31 16
-98 -1z"/>
<path d="M19002 1366 c-46 -16 -97 -69 -110 -114 -8 -27 -12 -162 -12 -432 0
-270 4 -405 12 -432 13 -45 64 -98 110 -114 48 -18 5948 -18 5996 0 46 16 97
69 110 114 17 55 17 809 0 864 -13 45 -64 98 -110 114 -48 18 -5948 18 -5996
0z m1216 -236 c1 -30 5 -70 8 -88 9 -47 -8 -62 -72 -62 -48 0 -56 3 -65 24 -7
14 -8 36 -4 53 4 15 7 47 6 70 -2 23 0 47 4 53 4 6 31 10 63 8 l57 -3 3 -55z
m480 48 c7 -7 12 -43 12 -93 0 -50 -5 -86 -12 -93 -7 -7 -35 -12 -63 -12 -28
0 -56 5 -63 12 -7 7 -12 43 -12 93 0 50 5 86 12 93 16 16 110 16 126 0z m279
-25 c17 -43 12 -113 -12 -150 -13 -19 -24 -23 -66 -23 -59 0 -65 23 -8 28 40
4 59 18 59 43 0 16 -8 19 -43 19 -52 0 -67 13 -67 60 0 48 15 60 73 60 46 0
49 -2 64 -37z m583 18 c5 -11 10 -50 10 -86 0 -93 -9 -105 -73 -105 -29 0 -58
5 -65 12 -7 7 -12 43 -12 93 0 50 5 86 12 93 7 7 36 12 65 12 41 0 54 -4 63
-19z m178 7 c7 -7 12 -43 12 -93 0 -50 -5 -86 -12 -93 -7 -7 -36 -12 -65 -12
-64 0 -73 12 -73 105 0 93 9 105 73 105 29 0 58 -5 65 -12z m226 -54 c11 -11
16 -34 16 -78 l0 -63 -60 -2 c-57 -1 -60 0 -66 26 -10 39 7 58 55 61 33 3 42
7 39 20 -2 12 -15 18 -46 20 -40 3 -50 10 -35 25 13 13 82 7 97 -9z m76 6 c0
-6 10 -5 25 2 18 8 31 8 49 0 18 -8 32 -8 54 0 56 21 82 -11 82 -103 0 -42 -3
-49 -20 -49 -18 0 -20 7 -20 60 0 66 -12 80 -49 60 -17 -9 -21 -20 -21 -65 0
-42 -3 -55 -15 -55 -12 0 -15 13 -15 59 0 65 -6 75 -45 65 -23 -6 -25 -10 -25
-65 0 -46 -3 -59 -15 -59 -12 0 -15 16 -15 80 0 64 3 80 15 80 8 0 15 -4 15
-10z m-860 -539 l0 -109 -57 1 c-53 2 -59 5 -71 30 -18 38 -7 104 20 118 11 6
33 8 49 5 28 -5 29 -4 29 29 0 24 5 35 15 35 12 0 15 -19 15 -109z m-1850 80
c15 -29 12 -72 -6 -92 -14 -15 -14 -20 0 -54 20 -46 20 -45 0 -45 -9 0 -23 17
-32 40 -13 30 -23 40 -39 40 -20 0 -23 -5 -23 -40 0 -29 -4 -40 -15 -40 -12 0
-15 18 -15 105 l0 105 60 0 c48 0 61 -4 70 -19z m135 -45 c14 -10 20 -30 23
-78 l4 -64 -61 -2 c-70 -2 -89 15 -71 62 8 22 16 26 50 26 34 0 41 3 38 18 -2
12 -14 18 -41 20 -35 3 -45 11 -30 25 11 12 69 7 88 -7z m512 8 c40 -11 52
-115 17 -145 -19 -15 -79 -15 -98 0 -11 9 -16 30 -16 67 0 43 4 56 22 68 24
17 40 19 75 10z m500 0 c40 -11 52 -115 17 -145 -19 -15 -79 -15 -98 0 -11 9
-16 30 -16 67 0 43 4 56 22 68 24 17 40 19 75 10z m257 -7 c11 -8 20 -31 23
-58 7 -61 -18 -93 -73 -91 -49 2 -64 22 -64 83 0 38 5 51 22 63 27 19 68 21
92 3z m268 -4 c14 -12 18 -31 18 -79 l0 -62 -62 1 c-61 2 -63 3 -66 30 -5 38
14 57 54 57 27 0 34 4 34 20 0 17 -7 20 -40 20 -38 0 -49 8 -33 23 13 13 77 7
95 -10z m316 1 c18 -12 22 -25 22 -68 0 -62 -12 -76 -63 -78 -45 -2 -65 14
-73 57 -15 83 50 134 114 89z m408 -9 c18 -24 18 -96 0 -120 -9 -13 -25 -18
-50 -17 -35 1 -36 0 -36 -33 0 -24 -5 -35 -15 -35 -12 0 -15 19 -15 113 l0
113 51 -1 c38 -1 55 -6 65 -20z m534 16 c0 -6 -4 -13 -10 -16 -5 -3 -10 -19
-10 -34 0 -36 -17 -51 -56 -51 -18 0 -36 -4 -39 -10 -4 -6 11 -10 39 -10 48 0
76 -18 76 -50 0 -33 -28 -50 -84 -50 -63 0 -82 16 -70 57 4 16 8 55 8 88 1 53
4 61 26 72 29 15 120 17 120 4z m481 -1 c16 -9 19 -22 19 -79 l0 -69 -34 0
c-19 0 -39 -3 -44 -6 -6 -3 -20 3 -33 13 -20 16 -22 23 -14 47 9 25 16 29 53
32 34 3 43 7 40 20 -2 11 -14 18 -33 20 -17 2 -37 5 -45 8 -13 4 -13 6 0 14
20 13 67 12 91 0z"/>
<path d="M9295 14743 c-16 -1 -86 -8 -155 -13 -69 -6 -183 -17 -255 -25 -71
-8 -222 -21 -335 -30 -113 -9 -281 -22 -375 -30 -93 -8 -219 -19 -280 -24 -60
-5 -186 -14 -280 -20 -229 -14 -438 -29 -565 -40 -266 -24 -784 -72 -865 -81
-93 -10 -157 -15 -610 -50 -148 -11 -335 -27 -415 -35 -80 -7 -215 -19 -300
-25 -85 -6 -213 -15 -285 -20 -71 -5 -195 -12 -275 -15 -80 -3 -189 -11 -242
-16 -53 -5 -197 -18 -320 -29 -326 -28 -658 -57 -953 -85 -143 -14 -440 -38
-660 -55 -493 -37 -726 -56 -920 -75 -82 -8 -253 -21 -380 -30 -126 -8 -288
-20 -359 -25 -71 -6 -168 -10 -215 -10 -47 0 -123 -3 -168 -7 l-83 -6 0 -34 0
-34 43 5 c23 3 103 10 177 16 74 6 353 28 620 50 568 46 1035 83 1315 105 183
14 828 67 1755 145 201 16 473 39 605 50 132 11 292 24 355 30 293 25 1399
117 1865 154 171 14 465 39 655 56 329 29 735 64 1105 95 94 8 222 19 285 25
63 6 223 19 356 30 132 11 283 25 335 31 52 7 130 15 174 18 56 5 19 7 -120 7
-110 0 -213 -1 -230 -3z"/>
<path d="M19002 146 c-45 -16 -96 -68 -109 -111 l-11 -35 3118 0 3118 0 -11
35 c-13 43 -64 95 -109 111 -48 18 -5948 18 -5996 0z"/>
</g>
</svg>
